<svg id="svg" version="1.1" xmlns="http://www.w3.org/2000/svg" xmlns:xlink="http://www.w3.org/1999/xlink" width="400" height="400" viewBox="0, 0, 400,400"><g id="svgg"><path id="path0" d="M169.354 102.475 C 169.243 102.654,167.453 102.800,165.376 102.800 C 163.125 102.800,161.600 102.962,161.600 103.200 C 161.600 103.431,160.341 103.600,158.624 103.600 C 156.987 103.600,155.536 103.780,155.400 104.000 C 155.264 104.220,154.263 104.400,153.176 104.400 C 152.089 104.400,151.200 104.580,151.200 104.800 C 151.200 105.020,150.300 105.200,149.200 105.200 C 148.100 105.200,147.200 105.380,147.200 105.600 C 147.200 105.820,146.390 106.000,145.400 106.000 C 144.410 106.000,143.600 106.180,143.600 106.400 C 143.600 106.620,142.880 106.800,142.000 106.800 C 141.120 106.800,140.400 106.980,140.400 107.200 C 140.400 107.420,139.781 107.600,139.024 107.600 C 138.267 107.600,137.536 107.780,137.400 108.000 C 137.264 108.220,136.634 108.400,136.000 108.400 C 135.366 108.400,134.760 108.541,134.654 108.713 C 134.548 108.885,133.874 109.070,133.157 109.125 C 132.440 109.179,131.616 109.421,131.327 109.661 C 131.037 109.901,130.800 109.995,130.800 109.869 C 130.800 109.744,130.170 109.904,129.400 110.226 C 128.630 110.548,128.000 110.696,128.000 110.556 C 128.000 110.416,127.775 110.477,127.500 110.690 C 127.225 110.903,125.740 111.500,124.200 112.016 C 122.660 112.532,121.229 113.100,121.020 113.277 C 120.811 113.455,120.316 113.600,119.920 113.600 C 119.524 113.600,119.200 113.780,119.200 114.000 C 119.200 114.220,118.750 114.400,118.200 114.400 C 117.650 114.400,117.200 114.580,117.200 114.800 C 117.200 115.020,116.851 115.200,116.424 115.200 C 115.997 115.200,115.536 115.380,115.400 115.600 C 115.264 115.820,114.803 116.000,114.376 116.000 C 113.949 116.000,113.600 116.180,113.600 116.400 C 113.600 116.620,113.240 116.800,112.800 116.800 C 112.360 116.800,112.000 116.980,112.000 117.200 C 112.000 117.420,111.730 117.600,111.400 117.600 C 111.070 117.600,110.800 117.780,110.800 118.000 C 110.800 118.220,110.462 118.400,110.049 118.400 C 109.636 118.400,109.076 118.668,108.804 118.996 C 108.532 119.323,108.150 119.493,107.955 119.372 C 107.760 119.251,107.600 119.343,107.600 119.576 C 107.600 119.809,107.240 120.000,106.800 120.000 C 106.360 120.000,106.000 120.180,106.000 120.400 C 106.000 120.620,105.706 120.800,105.347 120.800 C 104.988 120.800,104.358 121.188,103.947 121.661 C 103.536 122.135,103.200 122.370,103.200 122.185 C 103.200 121.999,102.917 122.196,102.570 122.624 C 102.224 123.051,102.080 123.133,102.251 122.807 C 102.430 122.467,102.079 122.594,101.427 123.107 C 100.803 123.598,100.059 124.000,99.773 124.000 C 99.488 124.000,99.141 124.356,99.003 124.792 C 98.864 125.227,98.627 125.558,98.476 125.527 C 98.060 125.442,96.000 126.346,96.000 126.614 C 96.000 126.742,96.180 126.736,96.400 126.600 C 96.620 126.464,96.800 126.445,96.800 126.558 C 96.800 126.670,96.125 127.056,95.300 127.415 C 92.899 128.458,92.600 128.657,92.600 129.210 C 92.600 129.498,92.870 129.807,93.200 129.897 C 93.731 130.042,93.731 130.013,93.203 129.647 C 92.711 129.306,92.699 129.143,93.132 128.717 C 93.421 128.432,93.623 128.380,93.581 128.600 C 93.539 128.820,93.529 129.180,93.557 129.400 C 93.585 129.620,93.605 145.315,93.600 164.278 C 93.592 196.777,93.632 198.779,94.296 199.166 C 94.683 199.391,94.786 199.581,94.524 199.588 C 94.262 199.595,93.934 199.417,93.796 199.193 C 93.427 198.597,92.796 199.125,93.059 199.810 C 93.214 200.214,93.598 200.315,94.301 200.139 C 95.108 199.936,95.247 199.999,94.971 200.442 C 94.370 201.404,94.445 202.000,95.166 202.000 C 95.973 202.000,97.737 203.730,97.337 204.130 C 97.188 204.278,97.285 204.400,97.552 204.400 C 97.819 204.400,98.839 205.190,99.819 206.156 C 100.799 207.122,101.600 207.745,101.600 207.542 C 101.600 207.339,102.122 207.707,102.760 208.359 C 103.398 209.012,103.995 209.472,104.085 209.381 C 104.176 209.290,104.883 209.798,105.656 210.508 C 106.429 211.219,107.316 211.859,107.627 211.932 C 107.938 212.005,108.284 212.187,108.396 212.337 C 108.508 212.488,109.500 213.058,110.600 213.605 C 111.700 214.152,112.660 214.735,112.733 214.900 C 112.807 215.065,113.132 215.200,113.457 215.200 C 113.782 215.200,113.956 215.347,113.845 215.527 C 113.734 215.707,113.993 216.107,114.421 216.415 C 114.850 216.724,115.200 217.207,115.200 217.488 C 115.200 217.770,115.345 218.000,115.522 218.000 C 116.007 218.000,116.091 221.096,115.614 221.391 C 115.386 221.532,115.201 221.952,115.203 222.324 C 115.207 223.467,112.390 225.594,110.804 225.644 C 108.810 225.707,107.432 225.560,107.200 225.259 C 106.899 224.870,104.697 223.582,103.900 223.329 C 103.515 223.207,103.200 222.948,103.200 222.753 C 103.200 222.559,102.829 222.400,102.376 222.400 C 101.923 222.400,101.664 222.220,101.800 222.000 C 101.938 221.777,101.636 221.600,101.120 221.600 C 100.610 221.600,99.963 221.233,99.683 220.784 C 99.403 220.336,99.000 220.077,98.787 220.208 C 98.574 220.340,98.400 220.246,98.400 220.000 C 98.400 219.754,98.220 219.664,98.000 219.800 C 97.780 219.936,97.600 219.837,97.600 219.581 C 97.600 219.324,97.345 219.212,97.033 219.332 C 96.475 219.546,95.833 218.593,96.169 218.050 C 96.264 217.897,96.015 217.771,95.616 217.771 C 95.217 217.771,94.971 217.980,95.068 218.234 C 95.166 218.489,94.956 218.808,94.602 218.944 C 94.248 219.080,94.057 219.031,94.177 218.837 C 94.606 218.143,93.916 216.140,93.065 215.610 C 92.290 215.127,92.254 215.137,92.724 215.706 C 93.013 216.055,93.193 216.669,93.124 217.070 C 93.048 217.520,93.211 217.755,93.549 217.684 C 93.909 217.607,94.012 217.791,93.849 218.216 C 93.712 218.573,93.600 231.200,93.600 246.276 C 93.600 270.476,93.530 273.659,93.000 273.455 C 92.656 273.323,92.400 273.447,92.400 273.746 C 92.400 274.032,92.670 274.267,93.000 274.267 C 93.330 274.267,93.600 274.138,93.600 273.980 C 93.600 273.822,94.185 273.740,94.900 273.797 C 95.615 273.854,96.605 273.747,97.100 273.560 C 97.664 273.347,98.000 273.371,98.000 273.624 C 98.000 273.895,98.247 273.896,98.747 273.628 C 99.158 273.408,99.604 273.337,99.738 273.471 C 99.871 273.605,100.231 273.506,100.537 273.253 C 100.842 272.999,101.837 272.864,102.746 272.952 C 103.656 273.041,104.400 272.998,104.401 272.857 C 104.401 272.715,105.706 272.551,107.301 272.491 C 108.895 272.431,111.010 272.208,112.000 271.995 C 112.990 271.783,114.790 271.513,116.000 271.397 C 119.167 271.091,123.334 270.614,123.800 270.504 C 124.020 270.451,124.326 268.562,124.481 266.304 C 124.858 260.788,125.219 258.000,125.557 258.000 C 125.711 258.000,125.881 257.325,125.936 256.500 C 125.990 255.675,126.207 254.940,126.418 254.867 C 126.628 254.793,126.800 254.298,126.800 253.767 C 126.800 253.235,126.980 252.800,127.200 252.800 C 127.420 252.800,127.600 252.350,127.600 251.800 C 127.600 251.250,127.780 250.800,128.000 250.800 C 128.220 250.800,128.400 250.451,128.400 250.024 C 128.400 249.597,128.580 249.136,128.800 249.000 C 129.020 248.864,129.200 248.486,129.200 248.160 C 129.200 247.833,129.560 247.180,130.000 246.708 C 130.440 246.236,130.800 245.613,130.800 245.325 C 130.800 245.036,130.980 244.800,131.200 244.800 C 131.420 244.800,131.600 244.520,131.600 244.178 C 131.600 243.836,132.139 242.981,132.798 242.278 C 133.457 241.575,133.997 240.892,133.998 240.760 C 134.002 240.311,143.545 230.800,143.992 230.800 C 144.236 230.800,144.873 230.363,145.407 229.829 C 145.941 229.295,146.923 228.536,147.589 228.143 C 148.255 227.749,148.800 227.286,148.800 227.114 C 148.800 226.941,149.036 226.800,149.325 226.800 C 149.613 226.800,150.198 226.479,150.625 226.086 C 151.051 225.693,152.210 224.978,153.200 224.497 C 154.190 224.016,156.085 223.017,157.411 222.277 C 158.737 221.537,160.312 220.808,160.911 220.658 C 161.510 220.508,162.000 220.198,162.000 219.969 C 162.000 219.740,162.163 219.653,162.362 219.777 C 162.685 219.976,163.956 219.451,167.244 217.758 C 167.818 217.463,168.403 217.336,168.544 217.477 C 168.685 217.618,168.800 217.523,168.800 217.267 C 168.800 217.010,169.340 216.800,170.000 216.800 C 170.660 216.800,171.200 216.620,171.200 216.400 C 171.200 216.180,171.549 216.000,171.976 216.000 C 172.403 216.000,172.864 215.820,173.000 215.600 C 173.136 215.380,173.672 215.200,174.190 215.200 C 174.709 215.200,175.193 215.036,175.267 214.837 C 175.340 214.637,175.760 214.412,176.200 214.337 C 176.640 214.261,177.100 214.066,177.222 213.902 C 177.345 213.738,177.975 213.582,178.622 213.555 C 180.557 213.473,181.604 212.790,181.568 211.632 C 181.551 211.065,181.446 210.825,181.335 211.100 C 180.986 211.965,180.332 211.646,180.616 210.750 C 180.812 210.132,180.750 209.983,180.391 210.206 C 180.071 210.403,179.961 210.318,180.079 209.964 C 180.179 209.662,179.843 208.964,179.331 208.412 C 178.819 207.860,178.400 207.188,178.400 206.918 C 178.400 206.649,178.040 206.235,177.600 206.000 C 177.160 205.765,176.796 205.263,176.791 204.886 C 176.786 204.509,176.430 203.750,176.000 203.200 C 175.570 202.650,175.214 201.975,175.209 201.700 C 175.204 201.425,175.020 201.200,174.800 201.200 C 174.580 201.200,174.400 200.930,174.400 200.600 C 174.400 200.270,174.256 200.000,174.080 200.000 C 173.905 200.000,173.533 199.370,173.254 198.600 C 172.976 197.830,172.572 197.200,172.357 197.200 C 172.141 197.200,172.001 196.975,172.046 196.700 C 172.150 196.055,171.590 194.747,170.919 194.068 C 170.629 193.775,170.495 193.370,170.620 193.168 C 170.745 192.965,170.657 192.800,170.424 192.800 C 170.191 192.800,170.000 192.564,170.000 192.275 C 170.000 191.986,169.640 191.005,169.200 190.094 C 168.760 189.184,168.400 188.160,168.400 187.819 C 168.400 187.479,168.220 187.200,168.000 187.200 C 167.780 187.200,167.600 186.761,167.600 186.224 C 167.600 185.687,167.420 185.136,167.200 185.000 C 166.980 184.864,166.800 184.313,166.800 183.776 C 166.800 183.239,166.620 182.800,166.400 182.800 C 166.180 182.800,166.000 182.275,166.000 181.633 C 166.000 180.992,165.825 180.407,165.612 180.333 C 165.398 180.260,165.163 179.800,165.089 179.310 C 165.015 178.821,164.829 178.296,164.677 178.144 C 164.525 177.991,164.400 177.357,164.400 176.733 C 164.400 176.110,164.220 175.600,164.000 175.600 C 163.780 175.600,163.600 174.981,163.600 174.224 C 163.600 173.467,163.420 172.736,163.200 172.600 C 162.980 172.464,162.800 171.633,162.800 170.753 C 162.800 169.788,162.641 169.251,162.400 169.400 C 162.153 169.552,162.000 168.871,162.000 167.624 C 162.000 166.511,161.820 165.600,161.600 165.600 C 161.380 165.600,161.200 164.801,161.200 163.824 C 161.200 162.847,161.020 161.936,160.800 161.800 C 160.580 161.664,160.400 160.404,160.400 159.000 C 160.400 157.596,160.220 156.336,160.000 156.200 C 159.775 156.061,159.600 154.129,159.600 151.776 C 159.600 149.259,159.441 147.600,159.200 147.600 C 158.950 147.600,158.800 145.141,158.800 141.024 C 158.800 137.071,158.960 134.349,159.200 134.200 C 159.420 134.064,159.600 133.493,159.600 132.930 C 159.600 130.987,164.400 127.674,165.715 128.709 C 165.982 128.918,166.662 129.200,167.226 129.334 C 168.528 129.644,170.000 130.906,170.000 131.714 C 170.000 132.054,170.214 132.405,170.475 132.492 C 170.820 132.607,170.923 134.274,170.851 138.555 C 170.777 142.952,170.885 144.625,171.276 145.106 C 171.715 145.649,171.709 145.698,171.237 145.414 C 170.789 145.144,170.734 145.272,170.969 146.037 C 171.232 146.895,171.464 149.044,172.247 157.900 C 172.369 159.275,172.633 160.400,172.834 160.400 C 173.035 160.400,173.200 161.379,173.200 162.576 C 173.200 163.773,173.380 164.864,173.600 165.000 C 173.820 165.136,174.000 165.766,174.000 166.400 C 174.000 167.034,174.180 167.664,174.400 167.800 C 174.620 167.936,174.800 168.637,174.800 169.357 C 174.800 170.077,174.935 170.802,175.100 170.967 C 175.429 171.296,175.476 171.510,175.550 173.024 C 175.583 173.696,175.761 173.948,176.068 173.758 C 176.376 173.568,176.455 173.681,176.298 174.088 C 176.167 174.429,176.348 175.119,176.699 175.620 C 177.086 176.173,177.136 176.408,176.826 176.216 C 176.439 175.977,176.386 176.131,176.610 176.850 C 176.773 177.372,177.052 177.857,177.230 177.926 C 177.409 177.995,177.445 178.340,177.310 178.691 C 177.162 179.075,177.228 179.230,177.474 179.078 C 177.719 178.926,177.867 179.262,177.842 179.912 C 177.812 180.700,177.986 180.986,178.473 180.949 C 179.037 180.906,179.069 181.024,178.673 181.673 C 178.268 182.337,178.360 182.566,179.313 183.267 C 180.089 183.838,180.308 184.229,180.036 184.556 C 179.782 184.863,179.783 185.232,180.040 185.613 C 180.360 186.090,180.412 186.058,180.317 185.441 C 180.253 185.024,180.452 184.595,180.761 184.488 C 181.166 184.347,181.259 184.529,181.098 185.146 C 180.948 185.719,181.060 186.000,181.437 186.000 C 181.917 186.000,182.000 179.880,182.000 144.400 C 182.000 115.388,181.872 102.800,181.576 102.800 C 181.343 102.800,181.281 103.008,181.438 103.262 C 181.615 103.548,181.548 103.615,181.262 103.438 C 180.598 103.028,180.684 102.822,181.700 102.399 C 182.304 102.148,180.452 102.045,176.077 102.087 C 172.490 102.121,169.464 102.296,169.354 102.475 M90.594 130.390 C 90.710 130.578,90.579 130.835,90.302 130.962 C 90.026 131.089,90.205 131.092,90.700 130.969 C 91.233 130.837,91.600 130.930,91.600 131.197 C 91.600 131.444,91.772 131.541,91.983 131.411 C 92.589 131.036,92.058 130.175,91.181 130.109 C 90.742 130.075,90.478 130.202,90.594 130.390 M181.686 188.159 C 182.232 188.564,182.273 188.780,181.886 189.215 C 181.476 189.676,181.511 189.677,182.113 189.221 C 182.981 188.563,182.831 187.908,181.778 187.760 C 181.059 187.659,181.052 187.689,181.686 188.159 M182.432 190.238 C 182.414 190.479,182.760 191.002,183.200 191.400 C 183.919 192.051,184.000 192.057,184.000 191.462 C 184.000 191.098,183.745 190.800,183.433 190.800 C 183.122 190.800,182.776 190.575,182.665 190.300 C 182.548 190.011,182.450 189.985,182.432 190.238 M95.600 273.224 C 95.600 273.431,95.330 273.600,95.000 273.600 C 94.381 273.600,94.205 273.128,94.656 272.678 C 94.975 272.358,95.600 272.719,95.600 273.224 M124.400 282.000 C 124.070 282.213,122.596 282.391,121.124 282.394 C 119.652 282.397,118.336 282.580,118.200 282.800 C 118.064 283.020,116.804 283.200,115.400 283.200 C 113.996 283.200,112.736 283.380,112.600 283.600 C 112.464 283.820,111.049 284.000,109.456 284.000 C 107.783 284.000,106.363 284.197,106.093 284.467 C 105.837 284.723,104.498 284.933,103.118 284.933 C 101.738 284.933,100.415 285.128,100.176 285.367 C 99.938 285.605,98.721 285.792,97.471 285.781 C 96.222 285.771,95.200 285.906,95.200 286.081 C 95.200 286.257,95.410 286.400,95.667 286.400 C 95.923 286.400,95.999 286.535,95.834 286.699 C 95.669 286.864,95.324 286.714,95.067 286.367 C 94.685 285.850,94.400 285.817,93.507 286.184 C 92.509 286.595,92.475 286.677,93.107 287.133 C 93.752 287.598,93.794 289.158,93.707 309.484 C 93.615 331.153,93.706 332.876,94.907 332.134 C 95.140 331.990,95.205 332.068,95.055 332.311 C 94.908 332.549,94.973 332.860,95.200 333.000 C 95.427 333.140,95.491 333.453,95.341 333.696 C 95.165 333.981,95.308 334.044,95.750 333.875 C 96.171 333.713,96.517 333.839,96.658 334.207 C 96.783 334.533,97.346 334.800,97.909 334.800 C 98.473 334.800,98.817 334.916,98.675 335.059 C 98.403 335.330,102.237 337.286,103.100 337.316 C 103.375 337.325,103.600 337.473,103.600 337.644 C 103.600 337.814,103.960 337.885,104.400 337.800 C 104.922 337.699,105.200 337.861,105.200 338.266 C 105.200 338.633,105.428 338.798,105.761 338.670 C 106.069 338.552,106.444 338.578,106.594 338.728 C 106.744 338.877,106.987 339.015,107.133 339.033 C 107.280 339.051,108.210 339.421,109.200 339.855 C 110.190 340.289,111.810 340.877,112.800 341.161 C 113.790 341.445,114.913 341.840,115.295 342.039 C 116.497 342.664,117.600 342.470,117.600 341.633 C 117.600 341.212,117.744 340.807,117.920 340.733 C 118.298 340.576,120.800 335.443,120.800 334.825 C 120.800 334.591,120.991 334.400,121.224 334.400 C 121.457 334.400,121.549 334.240,121.428 334.045 C 121.307 333.850,121.465 333.478,121.779 333.218 C 122.092 332.958,122.462 332.230,122.600 331.602 C 122.878 330.336,124.604 328.400,125.455 328.400 C 125.755 328.400,126.000 328.220,126.000 328.000 C 126.000 327.189,129.196 327.588,130.798 328.599 C 132.966 329.967,135.149 334.800,133.600 334.800 C 133.380 334.800,133.200 335.239,133.200 335.776 C 133.200 336.313,133.020 336.864,132.800 337.000 C 132.580 337.136,132.400 337.582,132.400 337.990 C 132.400 338.399,132.265 338.793,132.100 338.867 C 131.841 338.982,131.001 340.596,129.510 343.847 C 128.843 345.300,129.271 346.187,130.703 346.325 C 131.416 346.394,132.000 346.619,132.000 346.825 C 132.000 347.031,132.799 347.200,133.776 347.200 C 134.753 347.200,135.664 347.380,135.800 347.600 C 135.936 347.820,136.721 348.000,137.544 348.000 C 138.367 348.000,139.211 348.163,139.420 348.363 C 139.776 348.703,140.941 348.884,146.400 349.444 C 147.610 349.569,148.771 349.835,148.980 350.035 C 149.189 350.236,151.225 350.400,153.504 350.400 C 156.164 350.400,157.559 350.543,157.400 350.800 C 157.242 351.056,158.475 351.200,160.815 351.200 L 164.477 351.200 164.227 349.100 C 164.090 347.945,163.885 345.920,163.772 344.600 C 163.659 343.280,163.371 341.808,163.131 341.329 C 162.891 340.848,162.821 339.952,162.976 339.329 C 163.130 338.708,163.343 337.030,163.451 335.600 C 163.559 334.170,163.750 332.730,163.876 332.400 C 164.002 332.070,164.174 331.266,164.259 330.614 C 164.343 329.962,164.589 329.251,164.806 329.034 C 165.023 328.817,165.200 328.262,165.200 327.800 C 165.200 327.338,165.394 326.766,165.631 326.529 C 167.042 325.118,165.718 323.570,161.700 321.934 C 160.985 321.643,160.400 321.269,160.400 321.102 C 160.400 320.936,159.939 320.800,159.376 320.800 C 158.796 320.800,158.460 320.627,158.600 320.400 C 158.736 320.180,158.477 320.000,158.024 320.000 C 157.571 320.000,157.200 319.820,157.200 319.600 C 157.200 319.380,156.840 319.200,156.400 319.200 C 155.960 319.200,155.600 319.020,155.600 318.800 C 155.600 318.580,155.330 318.400,155.000 318.400 C 154.670 318.400,154.400 318.264,154.400 318.098 C 154.400 317.931,153.894 317.571,153.275 317.297 C 152.656 317.024,151.764 316.440,151.292 316.000 C 150.820 315.560,150.322 315.200,150.186 315.200 C 149.895 315.200,145.617 311.983,143.573 310.226 C 142.788 309.552,141.701 308.640,141.157 308.200 C 139.851 307.144,134.299 300.157,133.184 298.167 C 132.701 297.305,131.967 296.122,131.553 295.538 C 131.139 294.954,130.800 294.189,130.800 293.838 C 130.800 293.487,130.620 293.200,130.400 293.200 C 130.180 293.200,130.000 292.851,130.000 292.424 C 130.000 291.997,129.820 291.536,129.600 291.400 C 129.380 291.264,129.200 290.803,129.200 290.376 C 129.200 289.949,129.020 289.600,128.800 289.600 C 128.580 289.600,128.400 289.060,128.400 288.400 C 128.400 287.740,128.220 287.200,128.000 287.200 C 127.780 287.200,127.600 286.581,127.600 285.824 C 127.600 285.067,127.420 284.336,127.200 284.200 C 126.980 284.064,126.800 283.533,126.800 283.019 C 126.800 281.765,125.571 281.243,124.400 282.000 M182.447 315.100 C 182.584 315.963,182.325 316.305,181.667 316.133 C 181.187 316.008,180.933 316.157,180.933 316.564 C 180.933 317.038,181.061 317.081,181.467 316.745 C 181.867 316.413,182.004 316.439,182.014 316.851 C 182.022 317.153,182.286 316.950,182.600 316.400 C 183.285 315.202,183.335 314.800,182.800 314.800 C 182.580 314.800,182.421 314.935,182.447 315.100 M180.186 317.900 C 180.346 318.439,180.283 318.800,180.027 318.800 C 179.792 318.800,179.586 318.485,179.568 318.100 C 179.548 317.646,179.463 317.584,179.328 317.922 C 179.213 318.209,178.527 319.091,177.803 319.880 C 176.400 321.412,173.200 327.194,173.200 328.198 C 173.200 328.529,173.020 328.800,172.800 328.800 C 172.580 328.800,172.400 329.419,172.400 330.176 C 172.400 330.933,172.247 331.647,172.060 331.763 C 171.873 331.878,171.738 332.564,171.760 333.287 L 171.800 334.600 177.309 334.676 C 180.662 334.722,182.726 334.604,182.585 334.376 C 182.457 334.169,182.588 333.994,182.876 333.987 C 183.224 333.979,183.165 333.796,182.700 333.443 C 182.076 332.970,182.000 332.078,182.000 325.256 C 182.000 318.589,181.919 317.600,181.376 317.600 C 181.009 317.600,180.857 317.806,181.006 318.100 C 181.145 318.375,180.957 318.240,180.588 317.800 C 179.925 317.009,179.920 317.010,180.186 317.900 M90.400 330.751 C 90.400 331.150,90.669 331.260,91.436 331.173 C 91.566 331.159,91.899 331.456,92.176 331.834 C 92.452 332.213,92.886 332.394,93.139 332.238 C 93.414 332.067,93.600 332.214,93.600 332.600 C 93.600 332.956,93.792 333.129,94.026 332.984 C 94.309 332.809,94.241 332.487,93.825 332.028 C 93.480 331.647,93.279 331.254,93.378 331.155 C 93.477 331.056,93.072 331.002,92.479 331.034 C 91.886 331.067,91.175 330.915,90.900 330.698 C 90.562 330.430,90.400 330.448,90.400 330.751 M173.000 342.778 C 172.560 342.955,172.060 343.019,171.889 342.919 C 171.718 342.820,171.610 343.743,171.651 344.969 C 171.691 346.196,171.876 347.200,172.062 347.200 C 172.248 347.200,172.400 347.718,172.400 348.351 C 172.400 348.984,172.659 349.717,172.976 349.980 C 173.293 350.243,173.458 350.704,173.343 351.005 C 173.227 351.306,173.508 351.786,173.967 352.072 C 174.847 352.622,175.156 353.448,174.300 352.965 C 174.025 352.809,174.205 353.076,174.700 353.557 C 175.195 354.038,175.600 354.604,175.600 354.816 C 175.600 355.630,175.675 355.820,176.245 356.450 C 176.569 356.807,176.789 357.257,176.734 357.450 C 176.414 358.584,180.411 363.087,181.268 362.558 C 181.451 362.445,181.600 362.723,181.600 363.176 C 181.600 363.629,181.780 364.000,182.000 364.000 C 182.220 364.000,182.400 364.289,182.400 364.643 C 182.400 365.037,182.622 365.200,182.975 365.065 C 183.307 364.937,183.631 365.130,183.742 365.522 C 183.847 365.895,183.895 365.712,183.849 365.115 C 183.802 364.518,183.608 363.888,183.418 363.715 C 183.227 363.542,183.194 363.613,183.342 363.872 C 183.491 364.132,183.430 364.458,183.207 364.596 C 182.983 364.734,182.800 364.567,182.800 364.224 C 182.800 363.881,182.620 363.600,182.400 363.600 C 182.180 363.600,182.000 363.409,182.000 363.176 C 182.000 362.943,182.198 362.875,182.440 363.025 C 182.749 363.216,182.744 363.043,182.425 362.447 C 182.114 361.866,182.007 358.759,182.085 352.599 C 182.148 347.649,182.043 343.599,181.851 343.600 C 181.659 343.600,181.726 343.330,182.000 343.000 C 182.424 342.489,182.316 342.400,181.273 342.400 C 180.599 342.400,179.934 342.583,179.796 342.807 C 179.658 343.030,179.355 343.096,179.123 342.952 C 178.435 342.527,174.814 342.566,174.632 343.000 C 174.539 343.220,174.449 343.175,174.432 342.900 C 174.396 342.337,174.149 342.316,173.000 342.778 " stroke="none" fill="#71eaa8" fill-rule="evenodd"></path><path id="path1" d="M181.674 102.422 C 180.910 102.729,180.742 103.600,181.447 103.600 C 181.557 103.600,181.536 103.420,181.400 103.200 C 181.264 102.980,181.343 102.800,181.576 102.800 C 181.872 102.800,182.000 115.388,182.000 144.400 C 182.000 179.880,181.917 186.000,181.437 186.000 C 181.057 186.000,180.948 185.719,181.102 185.133 C 181.284 184.436,181.194 184.317,180.644 184.528 C 180.267 184.673,180.056 184.633,180.175 184.441 C 180.294 184.248,180.142 183.884,179.838 183.631 C 179.400 183.268,179.296 183.321,179.342 183.886 C 179.374 184.279,179.652 184.798,179.961 185.039 C 180.270 185.281,180.402 185.674,180.255 185.912 C 180.107 186.150,180.170 186.458,180.393 186.596 C 180.617 186.734,180.800 187.119,180.800 187.452 C 180.800 188.172,181.802 189.265,182.146 188.921 C 182.279 188.788,182.075 188.448,181.694 188.165 C 181.041 187.681,181.041 187.656,181.688 187.747 C 182.815 187.905,182.972 188.347,182.202 189.198 C 181.528 189.942,181.525 190.000,182.165 190.000 C 182.644 190.000,182.785 190.217,182.628 190.712 C 182.487 191.157,182.702 191.641,183.201 192.001 C 183.640 192.317,184.000 192.779,184.000 193.027 C 184.000 193.953,185.276 196.000,185.693 195.742 C 185.936 195.592,186.009 195.662,185.860 195.903 C 185.573 196.368,186.799 198.793,187.324 198.797 C 187.502 198.799,187.536 198.980,187.400 199.200 C 187.264 199.420,187.463 199.600,187.843 199.600 C 188.223 199.600,188.419 199.715,188.278 199.855 C 188.138 199.995,188.417 200.670,188.899 201.355 C 190.128 203.104,190.663 203.604,190.974 203.293 C 191.121 203.145,191.137 203.299,191.008 203.636 C 190.754 204.297,192.114 206.152,192.541 205.726 C 192.683 205.583,192.800 205.767,192.800 206.133 C 192.800 206.500,192.980 206.800,193.200 206.800 C 193.420 206.800,193.600 206.993,193.600 207.229 C 193.600 208.577,197.926 209.514,199.033 208.407 C 199.250 208.190,200.284 207.981,201.330 207.941 C 202.377 207.901,203.320 207.729,203.426 207.557 C 203.532 207.386,204.470 207.238,205.509 207.228 C 206.549 207.219,207.728 207.163,208.130 207.105 C 208.790 207.010,210.117 208.682,211.062 210.800 C 211.210 211.130,211.574 211.670,211.871 212.000 C 212.612 212.821,216.000 217.909,216.000 218.199 C 216.000 218.328,216.360 218.820,216.800 219.292 C 217.240 219.764,217.600 220.387,217.600 220.675 C 217.600 220.964,217.738 221.200,217.906 221.200 C 218.074 221.200,218.656 221.920,219.200 222.800 C 219.744 223.680,220.326 224.400,220.494 224.400 C 220.662 224.400,220.800 224.670,220.800 225.000 C 220.800 225.330,220.980 225.600,221.200 225.600 C 221.420 225.600,221.600 225.855,221.600 226.167 C 221.600 226.478,221.825 226.815,222.100 226.914 C 222.500 227.059,222.500 227.265,222.100 227.942 C 221.825 228.408,221.600 229.422,221.600 230.195 C 221.600 230.968,221.420 231.600,221.200 231.600 C 220.980 231.600,220.800 232.500,220.800 233.600 C 220.800 234.700,220.620 235.600,220.400 235.600 C 220.180 235.600,220.000 236.320,220.000 237.200 C 220.000 238.080,219.854 238.800,219.675 238.800 C 219.496 238.800,219.306 239.655,219.253 240.700 C 219.200 241.745,218.987 242.660,218.779 242.733 C 218.570 242.807,218.400 243.651,218.400 244.610 C 218.400 245.568,218.220 246.464,218.000 246.600 C 216.679 247.417,217.815 252.214,219.815 254.264 C 222.727 257.249,230.800 256.488,230.800 253.229 C 230.800 252.993,230.980 252.800,231.200 252.800 C 231.420 252.800,231.600 252.451,231.600 252.024 C 231.600 251.597,231.780 251.136,232.000 251.000 C 232.220 250.864,232.400 249.953,232.400 248.976 C 232.400 247.999,232.562 247.200,232.760 247.200 C 232.958 247.200,233.228 246.390,233.360 245.400 C 233.492 244.410,233.708 242.790,233.840 241.800 C 233.972 240.810,234.242 240.000,234.440 240.000 C 234.638 240.000,234.800 239.100,234.800 238.000 C 234.800 236.900,234.957 236.000,235.148 236.000 C 235.339 236.000,235.607 235.235,235.742 234.300 C 235.877 233.365,236.177 231.700,236.409 230.600 C 237.722 224.371,237.253 222.329,233.376 217.400 C 233.029 216.960,232.450 216.105,232.087 215.500 C 231.724 214.895,231.286 214.400,231.114 214.400 C 230.941 214.400,230.800 214.080,230.800 213.688 C 230.800 213.297,230.440 212.717,230.000 212.400 C 229.560 212.083,229.200 211.593,229.200 211.312 C 229.200 211.030,229.050 210.800,228.868 210.800 C 228.685 210.800,228.280 210.305,227.968 209.700 C 227.655 209.095,227.085 208.251,226.700 207.825 C 226.315 207.398,226.000 206.853,226.000 206.613 C 226.000 206.373,225.640 205.917,225.200 205.600 C 224.008 204.741,224.205 204.500,226.300 204.254 C 230.280 203.787,231.816 203.497,232.272 203.129 C 232.532 202.920,233.297 202.732,233.972 202.713 C 234.648 202.694,235.200 202.526,235.200 202.339 C 235.200 201.462,236.443 202.243,239.134 204.808 C 240.748 206.346,242.261 207.486,242.496 207.341 C 242.749 207.184,242.807 207.265,242.638 207.538 C 242.481 207.792,242.508 208.000,242.698 208.000 C 242.888 208.000,243.731 208.630,244.572 209.400 C 245.413 210.170,245.960 210.800,245.788 210.800 C 245.616 210.800,245.999 211.250,246.638 211.800 C 247.277 212.349,248.126 212.799,248.524 212.800 C 248.922 212.800,249.151 212.955,249.034 213.145 C 248.917 213.335,249.747 214.330,250.879 215.357 C 252.263 216.613,253.033 217.071,253.228 216.754 C 253.424 216.437,253.586 216.531,253.725 217.042 C 253.838 217.459,253.901 213.795,253.865 208.900 C 253.829 204.004,253.832 199.999,253.871 200.000 C 253.911 200.000,254.261 200.315,254.649 200.700 C 255.289 201.334,255.331 201.337,255.100 200.726 C 254.960 200.355,255.060 199.960,255.322 199.847 C 255.585 199.734,255.125 199.698,254.300 199.766 C 252.627 199.904,252.386 199.727,253.622 199.270 C 254.414 198.977,254.398 198.917,253.222 197.686 C 251.829 196.229,251.728 195.792,252.660 195.270 C 253.076 195.037,253.241 194.598,253.105 194.081 C 252.956 193.508,253.051 193.321,253.420 193.463 C 253.711 193.575,253.851 193.923,253.730 194.238 C 253.575 194.643,253.706 194.734,254.182 194.551 C 254.658 194.369,254.729 194.169,254.427 193.867 C 254.130 193.570,253.998 181.239,253.994 153.420 C 253.990 128.273,253.844 113.177,253.600 112.800 C 253.387 112.470,253.209 112.340,253.206 112.510 C 253.196 113.006,250.920 111.690,250.673 111.046 C 250.535 110.685,250.136 110.544,249.629 110.676 C 249.133 110.806,248.725 110.669,248.594 110.330 C 248.466 109.995,247.858 109.785,247.090 109.810 C 246.380 109.832,245.702 109.709,245.583 109.535 C 245.463 109.362,244.923 109.139,244.383 109.040 C 243.842 108.941,243.355 108.824,243.300 108.780 C 243.079 108.604,242.331 108.498,240.976 108.450 C 240.193 108.422,239.643 108.255,239.753 108.077 C 239.862 107.899,239.198 107.709,238.276 107.655 C 237.354 107.601,236.429 107.387,236.220 107.179 C 236.011 106.970,234.976 106.800,233.920 106.800 C 232.864 106.800,232.000 106.620,232.000 106.400 C 232.000 106.180,231.010 106.000,229.800 106.000 C 228.590 106.000,227.600 105.820,227.600 105.600 C 227.600 105.380,226.711 105.200,225.624 105.200 C 224.537 105.200,223.536 105.020,223.400 104.800 C 223.264 104.580,221.993 104.400,220.576 104.400 C 219.125 104.400,218.000 104.225,218.000 104.000 C 218.000 103.767,216.667 103.600,214.800 103.600 C 212.933 103.600,211.600 103.433,211.600 103.200 C 211.600 102.960,210.008 102.800,207.624 102.800 C 205.437 102.800,203.548 102.640,203.427 102.444 C 202.944 101.662,183.685 101.890,183.479 102.681 C 183.307 103.345,183.289 103.347,183.246 102.700 C 183.195 101.919,183.009 101.887,181.674 102.422 M248.400 120.359 C 250.586 122.695,250.989 123.248,250.321 122.991 C 249.592 122.711,249.254 130.993,249.919 132.835 C 250.183 133.565,250.042 134.190,249.340 135.400 C 248.830 136.280,248.410 136.858,248.407 136.684 C 248.403 136.511,248.149 136.601,247.842 136.884 C 247.535 137.168,247.366 137.535,247.466 137.700 C 247.624 137.961,246.364 138.184,245.500 138.047 C 245.335 138.021,245.200 138.180,245.200 138.400 C 245.200 138.921,243.322 138.921,243.000 138.400 C 242.864 138.180,242.391 138.000,241.948 138.000 C 241.505 138.000,240.907 137.764,240.618 137.475 C 237.539 134.396,237.373 120.000,240.416 120.000 C 240.627 120.000,240.800 119.730,240.800 119.400 C 240.800 119.070,240.935 118.829,241.100 118.864 C 241.265 118.898,241.670 118.815,242.000 118.679 C 244.255 117.747,246.509 118.338,248.400 120.359 M184.000 191.449 C 184.000 191.980,183.891 192.008,183.400 191.600 C 183.070 191.326,182.800 191.034,182.800 190.951 C 182.800 190.868,183.070 190.800,183.400 190.800 C 183.730 190.800,184.000 191.092,184.000 191.449 M251.784 195.722 C 251.618 196.382,251.846 196.936,252.585 197.676 C 253.393 198.484,253.491 198.756,253.038 198.930 C 252.380 199.182,251.451 198.282,251.903 197.830 C 252.066 197.668,251.909 197.323,251.555 197.064 C 251.090 196.724,251.003 196.344,251.243 195.696 C 251.678 194.520,252.081 194.539,251.784 195.722 M254.300 218.488 C 254.795 218.727,255.200 219.075,255.200 219.261 C 255.200 219.448,255.408 219.600,255.662 219.600 C 255.924 219.600,255.811 219.254,255.400 218.800 C 255.002 218.360,254.389 218.012,254.038 218.027 C 253.596 218.046,253.676 218.187,254.300 218.488 M208.400 304.000 C 208.400 304.229,207.192 304.400,205.576 304.400 C 203.796 304.400,202.844 304.548,203.000 304.800 C 203.149 305.042,202.604 305.200,201.624 305.200 C 200.731 305.200,200.000 305.380,200.000 305.600 C 200.000 305.820,199.359 306.000,198.576 306.000 C 197.729 306.000,197.253 306.162,197.400 306.400 C 197.540 306.626,197.208 306.800,196.636 306.800 C 196.079 306.800,194.983 307.160,194.200 307.600 C 193.417 308.040,192.545 308.400,192.263 308.400 C 191.981 308.400,191.398 308.729,190.967 309.130 C 190.536 309.532,189.993 309.798,189.762 309.721 C 189.531 309.644,189.012 309.945,188.609 310.390 C 188.206 310.836,187.550 311.200,187.151 311.200 C 186.655 311.200,186.502 311.399,186.667 311.830 C 186.826 312.244,186.715 312.415,186.343 312.330 C 185.627 312.166,182.186 314.662,182.832 314.877 C 183.183 314.994,183.140 315.352,182.671 316.218 C 182.320 316.868,182.025 317.153,182.016 316.851 C 182.002 316.386,181.897 316.386,181.323 316.851 C 180.875 317.215,180.747 317.233,180.944 316.905 C 181.145 316.569,181.043 316.485,180.628 316.645 C 180.053 316.865,180.412 318.400,181.038 318.400 C 181.153 318.400,181.136 318.220,181.000 318.000 C 180.864 317.780,181.033 317.600,181.376 317.600 C 181.920 317.600,182.000 318.598,182.000 325.357 C 182.000 332.204,182.078 333.144,182.661 333.368 C 183.272 333.603,183.271 333.660,182.642 334.120 C 181.744 334.776,194.055 335.000,197.000 334.380 C 200.870 333.566,202.613 333.048,203.912 332.328 C 204.634 331.927,205.406 331.600,205.629 331.600 C 205.851 331.600,206.420 331.240,206.892 330.800 C 207.364 330.360,207.987 330.000,208.275 330.000 C 208.564 330.000,208.800 329.820,208.800 329.600 C 208.800 329.380,209.160 329.200,209.600 329.200 C 210.040 329.200,210.400 329.020,210.400 328.800 C 210.400 328.580,210.694 328.400,211.053 328.400 C 211.412 328.400,211.997 328.080,212.353 327.689 C 212.709 327.297,213.798 326.356,214.774 325.596 C 219.839 321.654,224.111 314.206,224.467 308.700 C 224.520 307.875,224.707 307.200,224.882 307.200 C 225.057 307.200,225.200 306.390,225.200 305.400 L 225.200 303.600 216.800 303.600 C 211.467 303.600,208.400 303.746,208.400 304.000 M181.600 315.576 C 181.600 316.247,182.309 316.413,182.546 315.798 C 182.685 315.435,182.544 315.200,182.187 315.200 C 181.864 315.200,181.600 315.369,181.600 315.576 M176.447 342.572 C 176.787 342.893,179.620 343.092,179.796 342.807 C 179.900 342.639,179.154 342.484,178.139 342.464 C 177.124 342.444,176.363 342.492,176.447 342.572 M181.987 343.015 C 181.720 343.337,181.659 343.600,181.851 343.600 C 182.043 343.599,182.148 347.649,182.085 352.599 C 182.007 358.759,182.114 361.866,182.425 362.447 C 182.744 363.043,182.749 363.216,182.440 363.025 C 182.198 362.875,182.000 362.943,182.000 363.176 C 182.000 363.409,182.180 363.600,182.400 363.600 C 182.620 363.600,182.800 363.859,182.800 364.176 C 182.800 364.493,182.971 364.858,183.179 364.987 C 183.389 365.117,183.484 364.836,183.392 364.357 C 183.300 363.881,183.354 363.621,183.513 363.779 C 183.804 364.070,183.860 364.285,183.950 365.443 C 183.980 365.831,184.230 365.997,184.580 365.863 C 184.953 365.720,185.085 365.833,184.952 366.180 C 184.818 366.530,185.249 366.886,186.176 367.192 C 186.963 367.452,187.502 367.834,187.374 368.042 C 187.246 368.250,187.289 368.394,187.470 368.363 C 188.378 368.205,189.219 368.445,189.000 368.800 C 188.864 369.020,189.123 369.200,189.576 369.200 C 190.029 369.200,190.400 369.370,190.400 369.577 C 190.400 369.784,190.760 369.885,191.200 369.800 C 191.713 369.701,192.000 369.861,192.000 370.247 C 192.000 370.577,192.139 370.761,192.309 370.656 C 192.479 370.551,193.514 370.899,194.609 371.429 C 195.704 371.959,197.005 372.394,197.500 372.396 C 197.995 372.398,198.400 372.570,198.400 372.777 C 198.400 372.984,198.792 373.079,199.270 372.986 C 199.749 372.894,200.383 373.020,200.679 373.265 C 201.289 373.772,202.438 374.009,205.600 374.281 C 206.810 374.385,207.971 374.635,208.180 374.835 C 208.389 375.036,212.322 375.200,216.920 375.200 L 225.281 375.200 225.064 373.500 C 224.379 368.130,223.174 364.259,221.196 361.073 C 220.538 360.014,220.000 359.061,220.000 358.955 C 220.000 358.850,219.550 358.314,219.000 357.764 C 218.450 357.214,218.000 356.619,218.000 356.441 C 218.000 356.004,215.678 353.600,215.256 353.600 C 215.070 353.600,214.385 353.105,213.733 352.500 C 212.414 351.276,210.567 350.067,209.500 349.729 C 209.115 349.607,208.800 349.348,208.800 349.153 C 208.800 348.959,208.440 348.800,208.000 348.800 C 207.560 348.800,207.200 348.620,207.200 348.400 C 207.200 348.180,207.065 348.043,206.900 348.095 C 206.411 348.250,204.000 347.133,204.000 346.751 C 204.000 346.558,203.460 346.400,202.800 346.400 C 202.140 346.400,201.600 346.243,201.600 346.050 C 201.600 345.772,199.496 345.105,199.098 345.257 C 199.044 345.277,198.340 345.018,197.533 344.681 C 196.726 344.344,195.988 344.145,195.894 344.239 C 195.800 344.333,195.110 344.162,194.361 343.858 C 193.613 343.554,192.505 343.377,191.900 343.466 C 191.295 343.555,190.800 343.461,190.800 343.257 C 190.800 343.054,190.170 342.814,189.400 342.724 C 188.630 342.634,188.000 342.715,188.000 342.904 C 188.000 343.093,187.791 343.118,187.535 342.960 C 186.575 342.366,182.492 342.407,181.987 343.015 M180.243 361.833 C 179.913 362.693,179.933 362.800,180.424 362.800 C 180.657 362.800,180.719 362.592,180.562 362.338 C 180.389 362.059,180.452 361.985,180.721 362.151 C 180.965 362.302,181.064 362.690,180.940 363.013 C 180.816 363.336,180.893 363.600,181.111 363.600 C 181.328 363.600,181.601 363.240,181.716 362.799 C 181.831 362.359,181.762 362.100,181.563 362.223 C 181.363 362.346,181.200 362.167,181.200 361.824 C 181.200 361.013,180.555 361.019,180.243 361.833 " stroke="none" fill="#3dd1a4" fill-rule="evenodd"></path><path id="path2" d="M98.800 124.288 C 98.800 124.519,98.215 125.012,97.500 125.384 C 93.753 127.328,92.897 128.049,94.489 127.917 C 95.068 127.870,95.467 127.709,95.376 127.561 C 95.284 127.412,95.585 127.193,96.045 127.072 C 96.504 126.952,96.774 126.682,96.645 126.472 C 96.444 126.147,96.884 125.918,98.309 125.607 C 98.753 125.510,99.304 124.371,99.037 124.103 C 98.906 123.973,98.800 124.056,98.800 124.288 M91.853 129.011 C 91.184 129.500,90.911 130.626,91.558 130.226 C 91.755 130.104,92.017 130.268,92.141 130.589 C 92.264 130.911,92.193 131.281,91.983 131.411 C 91.772 131.541,91.600 131.459,91.600 131.228 C 91.600 130.619,89.887 130.896,89.299 131.600 C 88.870 132.114,88.829 132.085,89.011 131.400 C 89.186 130.745,89.139 130.763,88.751 131.500 C 88.491 131.995,88.035 132.400,87.739 132.400 C 87.442 132.400,87.200 132.580,87.200 132.800 C 87.200 133.020,86.975 133.200,86.700 133.200 C 86.091 133.201,84.000 134.950,84.000 135.458 C 84.000 135.659,83.614 136.088,83.141 136.412 C 82.669 136.735,81.769 137.489,81.141 138.087 C 80.514 138.684,80.000 139.097,80.000 139.005 C 80.000 138.912,79.550 139.286,79.000 139.836 C 78.450 140.386,78.000 141.038,78.000 141.285 C 78.000 141.532,77.899 141.633,77.776 141.509 C 77.653 141.386,76.528 142.353,75.276 143.658 C 74.024 144.963,72.157 146.905,71.126 147.974 C 70.095 149.043,69.360 150.027,69.492 150.159 C 69.625 150.292,69.454 150.400,69.112 150.400 C 68.771 150.400,68.187 151.041,67.815 151.824 C 67.444 152.607,66.883 153.347,66.570 153.467 C 66.256 153.587,66.000 154.209,66.000 154.848 C 66.000 156.002,66.085 156.245,67.332 158.644 C 67.688 159.328,67.864 160.003,67.723 160.144 C 67.582 160.285,67.677 160.400,67.933 160.400 C 68.190 160.400,68.400 160.760,68.400 161.200 C 68.400 161.640,68.580 162.000,68.800 162.000 C 69.020 162.000,69.200 162.272,69.200 162.605 C 69.200 162.938,69.380 163.568,69.600 164.005 C 69.820 164.442,70.180 165.158,70.400 165.595 C 70.620 166.032,70.800 166.588,70.800 166.830 C 70.800 167.073,71.205 167.629,71.700 168.066 C 72.195 168.503,72.375 168.747,72.100 168.607 C 71.825 168.467,71.600 168.543,71.600 168.776 C 71.600 169.009,71.735 169.201,71.900 169.201 C 72.065 169.202,72.650 170.192,73.200 171.400 C 73.750 172.608,74.335 173.598,74.500 173.599 C 74.665 173.599,74.800 173.848,74.800 174.151 C 74.800 174.454,75.070 174.926,75.400 175.200 C 75.730 175.474,76.003 175.991,76.007 176.349 C 76.011 176.707,76.460 177.423,77.005 177.941 C 77.551 178.458,77.896 179.044,77.773 179.244 C 77.650 179.443,77.832 179.889,78.178 180.235 C 78.524 180.581,78.702 181.034,78.574 181.242 C 78.446 181.450,78.489 181.570,78.670 181.510 C 78.852 181.449,79.029 181.564,79.064 181.764 C 79.099 181.964,79.407 182.284,79.748 182.475 C 80.114 182.680,80.264 183.088,80.115 183.476 C 79.955 183.895,80.023 184.033,80.304 183.859 C 80.568 183.696,80.947 184.151,81.252 184.994 C 81.532 185.767,81.905 186.400,82.080 186.400 C 82.256 186.400,82.400 186.689,82.400 187.043 C 82.400 187.471,82.616 187.603,83.048 187.437 C 83.554 187.243,83.648 187.374,83.475 188.034 C 83.354 188.499,83.353 188.780,83.475 188.659 C 83.758 188.376,84.800 189.408,84.800 189.971 C 84.800 190.207,85.064 190.400,85.387 190.400 C 85.745 190.400,85.885 190.635,85.745 191.000 C 85.599 191.380,85.750 191.600,86.157 191.600 C 86.511 191.600,86.781 191.735,86.757 191.900 C 86.632 192.765,87.329 194.040,87.649 193.534 C 87.891 193.152,87.989 193.262,87.994 193.918 C 87.997 194.422,88.225 194.806,88.500 194.770 C 89.689 194.616,90.196 194.858,89.400 195.200 C 88.716 195.494,88.701 195.548,89.300 195.572 C 89.685 195.587,90.000 195.753,90.000 195.940 C 90.000 196.933,92.472 199.638,92.988 199.210 C 93.361 198.901,93.609 198.892,93.788 199.181 C 93.931 199.411,94.262 199.595,94.524 199.588 C 94.786 199.581,94.683 199.391,94.296 199.166 C 93.632 198.779,93.592 196.777,93.600 164.278 C 93.605 145.315,93.585 129.620,93.557 129.400 C 93.529 129.180,93.517 128.895,93.530 128.767 C 93.574 128.362,92.533 128.513,91.853 129.011 M56.500 167.398 C 56.225 167.711,56.000 168.204,56.000 168.495 C 56.000 168.786,55.640 169.283,55.200 169.600 C 54.760 169.917,54.400 170.497,54.400 170.888 C 54.400 171.280,54.220 171.600,54.000 171.600 C 53.780 171.600,53.600 171.878,53.600 172.217 C 53.600 172.556,53.240 173.220,52.800 173.692 C 52.360 174.164,52.000 174.787,52.000 175.075 C 52.000 175.364,51.865 175.601,51.700 175.601 C 51.535 175.602,50.950 176.592,50.400 177.800 C 49.850 179.008,49.265 179.998,49.100 179.999 C 48.935 179.999,48.800 180.360,48.800 180.800 C 48.800 181.240,48.620 181.600,48.400 181.600 C 48.180 181.600,48.000 181.960,48.000 182.400 C 48.000 182.840,47.820 183.200,47.600 183.200 C 47.380 183.200,47.200 183.465,47.200 183.788 C 47.200 184.111,46.840 185.017,46.400 185.800 C 45.960 186.583,45.600 187.579,45.600 188.012 C 45.600 188.445,45.420 188.800,45.200 188.800 C 44.980 188.800,44.800 189.124,44.800 189.520 C 44.800 189.916,44.642 190.411,44.449 190.620 C 43.898 191.217,42.000 196.834,42.000 197.868 C 42.000 198.381,41.820 198.800,41.600 198.800 C 41.380 198.800,41.200 199.340,41.200 200.000 C 41.200 200.660,41.020 201.200,40.800 201.200 C 40.580 201.200,40.400 201.740,40.400 202.400 C 40.400 203.060,40.220 203.600,40.000 203.600 C 39.780 203.600,39.600 204.140,39.600 204.800 C 39.600 205.460,39.420 206.000,39.200 206.000 C 38.980 206.000,38.800 206.720,38.800 207.600 C 38.800 208.480,38.620 209.200,38.400 209.200 C 38.180 209.200,38.000 209.909,38.000 210.776 C 38.000 211.643,37.820 212.464,37.600 212.600 C 37.380 212.736,37.200 213.636,37.200 214.600 C 37.200 215.564,37.020 216.464,36.800 216.600 C 36.580 216.736,36.400 217.816,36.400 219.000 C 36.400 220.184,36.220 221.264,36.000 221.400 C 35.780 221.536,35.600 223.077,35.600 224.824 C 35.600 226.675,35.433 228.000,35.200 228.000 C 34.944 228.000,34.800 231.733,34.800 238.400 C 34.800 245.067,34.944 248.800,35.200 248.800 C 35.431 248.800,35.600 250.059,35.600 251.776 C 35.600 253.413,35.780 254.864,36.000 255.000 C 36.220 255.136,36.400 256.227,36.400 257.424 C 36.400 258.621,36.580 259.600,36.800 259.600 C 37.020 259.600,37.200 260.399,37.200 261.376 C 37.200 262.353,37.380 263.264,37.600 263.400 C 37.820 263.536,38.000 264.256,38.000 265.000 C 38.000 265.744,38.180 266.464,38.400 266.600 C 38.620 266.736,38.800 267.377,38.800 268.024 C 38.800 268.671,38.980 269.200,39.200 269.200 C 39.420 269.200,39.600 269.652,39.600 270.205 C 39.600 270.758,39.780 271.568,40.000 272.005 C 40.220 272.442,40.580 273.158,40.800 273.595 C 41.020 274.032,41.200 274.752,41.200 275.195 C 41.200 275.638,41.380 276.000,41.600 276.000 C 41.820 276.000,42.000 276.427,42.000 276.949 C 42.000 278.003,43.413 281.437,43.994 281.796 C 44.198 281.922,44.264 282.290,44.140 282.613 C 44.016 282.936,44.114 283.200,44.357 283.200 C 44.601 283.200,44.800 283.560,44.800 284.000 C 44.800 284.440,44.980 284.800,45.200 284.800 C 45.420 284.800,45.600 285.160,45.600 285.600 C 45.600 286.040,45.780 286.400,46.000 286.400 C 46.220 286.400,46.400 286.760,46.400 287.200 C 46.400 287.640,46.580 288.000,46.800 288.000 C 47.020 288.000,47.200 288.270,47.200 288.600 C 47.200 288.930,47.380 289.200,47.600 289.200 C 47.820 289.200,48.000 289.560,48.000 290.000 C 48.000 290.440,48.180 290.800,48.400 290.800 C 48.620 290.800,48.800 291.036,48.800 291.325 C 48.800 291.613,49.160 292.236,49.600 292.708 C 50.040 293.180,50.400 293.804,50.400 294.095 C 50.400 294.386,50.760 294.883,51.200 295.200 C 51.640 295.517,52.000 296.054,52.000 296.392 C 52.000 296.731,52.360 297.232,52.800 297.507 C 53.240 297.782,53.600 298.293,53.600 298.643 C 53.600 298.993,54.108 299.756,54.728 300.340 C 55.349 300.923,56.024 301.691,56.228 302.046 C 56.796 303.032,58.870 305.643,60.100 306.920 C 60.705 307.548,61.200 308.151,61.200 308.259 C 61.200 308.678,62.317 309.549,62.552 309.314 C 62.689 309.178,62.800 309.290,62.800 309.562 C 62.800 310.181,63.792 311.200,64.395 311.200 C 64.644 311.200,64.774 311.335,64.684 311.500 C 64.594 311.665,65.651 312.916,67.033 314.280 C 68.518 315.745,69.626 316.564,69.742 316.280 C 69.856 315.999,69.950 316.071,69.968 316.454 C 69.986 316.814,70.495 317.431,71.100 317.825 C 71.705 318.219,72.671 319.043,73.247 319.657 C 73.823 320.270,74.408 320.658,74.547 320.519 C 74.686 320.380,74.800 320.477,74.800 320.733 C 74.800 320.990,75.051 321.200,75.357 321.200 C 75.664 321.200,76.018 321.469,76.144 321.798 C 76.427 322.535,78.822 324.034,79.272 323.756 C 79.452 323.644,79.600 323.743,79.600 323.976 C 79.600 324.209,79.915 324.403,80.300 324.406 C 80.898 324.411,80.913 324.469,80.400 324.800 C 79.915 325.114,79.972 325.189,80.700 325.194 C 81.195 325.197,81.600 325.380,81.600 325.600 C 81.600 325.820,81.881 326.000,82.224 326.000 C 82.567 326.000,82.736 326.180,82.600 326.400 C 82.464 326.620,82.625 326.800,82.958 326.800 C 83.912 326.800,85.597 327.681,85.364 328.058 C 85.248 328.246,85.480 328.400,85.880 328.400 C 86.280 328.400,86.843 328.778,87.131 329.239 C 87.420 329.700,87.757 329.977,87.880 329.853 C 88.004 329.729,88.487 329.846,88.953 330.112 C 89.419 330.378,89.980 330.621,90.200 330.652 C 90.420 330.683,90.780 330.731,91.000 330.760 C 91.220 330.789,91.132 330.982,90.805 331.188 C 90.334 331.486,90.390 331.551,91.077 331.499 C 91.554 331.463,91.884 331.336,91.810 331.217 C 91.737 331.098,92.094 331.000,92.604 331.000 C 93.197 331.000,93.408 331.149,93.189 331.413 C 92.997 331.645,93.009 332.085,93.217 332.413 C 93.491 332.848,93.589 332.864,93.594 332.476 C 93.597 332.188,93.783 332.066,94.007 332.204 C 94.230 332.342,94.322 332.602,94.211 332.782 C 94.100 332.962,94.261 333.318,94.569 333.574 C 94.922 333.867,95.218 333.894,95.371 333.647 C 95.504 333.432,95.427 333.140,95.200 333.000 C 94.973 332.860,94.908 332.549,95.055 332.311 C 95.205 332.068,95.140 331.990,94.907 332.134 C 93.706 332.876,93.615 331.153,93.707 309.519 C 93.784 291.513,93.705 287.614,93.254 287.193 C 92.613 286.594,88.800 286.280,88.800 286.827 C 88.800 287.032,88.609 287.200,88.376 287.200 C 88.143 287.200,88.064 287.020,88.200 286.800 C 88.336 286.580,88.267 286.400,88.047 286.400 C 87.827 286.400,87.536 286.580,87.400 286.800 C 87.264 287.020,86.119 287.200,84.856 287.200 C 83.573 287.200,82.322 287.421,82.021 287.700 C 81.583 288.107,81.545 288.088,81.818 287.600 C 82.097 287.102,82.049 287.085,81.536 287.499 C 81.197 287.774,79.723 288.035,78.260 288.080 C 76.797 288.125,75.600 288.305,75.600 288.481 C 75.600 288.656,74.790 288.800,73.800 288.800 C 72.810 288.800,72.000 288.620,72.000 288.400 C 72.000 288.180,71.640 288.000,71.200 288.000 C 70.760 288.000,70.400 287.820,70.400 287.600 C 70.400 287.380,70.207 287.200,69.971 287.200 C 69.325 287.200,68.400 286.143,68.400 285.405 C 68.400 285.046,68.220 284.864,68.000 285.000 C 67.408 285.366,67.501 281.474,68.111 280.346 C 69.270 278.203,69.838 277.600,70.696 277.600 C 71.193 277.600,71.600 277.420,71.600 277.200 C 71.600 276.980,72.575 276.800,73.767 276.800 C 74.958 276.800,75.993 276.626,76.067 276.413 C 76.140 276.201,77.550 275.986,79.200 275.936 C 80.850 275.885,82.303 275.695,82.429 275.513 C 82.556 275.330,83.979 275.169,85.593 275.154 C 87.574 275.135,88.345 275.003,87.964 274.748 C 87.591 274.498,87.923 274.461,88.944 274.638 C 90.055 274.830,90.586 274.751,90.838 274.353 C 91.090 273.954,91.189 273.939,91.194 274.300 C 91.204 275.111,91.999 274.871,92.339 273.954 C 92.627 273.174,92.702 273.159,93.300 273.757 C 93.721 274.178,94.041 274.258,94.210 273.985 C 94.353 273.753,94.995 273.646,95.637 273.747 C 96.340 273.858,96.708 273.775,96.562 273.539 C 96.429 273.323,96.221 273.246,96.099 273.367 C 95.978 273.488,95.649 273.275,95.368 272.894 C 94.884 272.236,94.843 272.236,94.586 272.900 C 93.709 275.160,93.592 271.574,93.692 245.633 C 93.763 227.151,93.664 217.689,93.400 217.733 C 93.180 217.770,93.047 217.510,93.105 217.155 C 93.163 216.800,92.939 215.990,92.607 215.355 C 92.276 214.720,91.998 214.380,91.990 214.600 C 91.982 214.820,91.790 214.681,91.563 214.292 C 91.336 213.902,90.982 213.688,90.775 213.815 C 90.569 213.943,90.397 213.722,90.394 213.324 C 90.389 212.756,90.312 212.719,90.039 213.151 C 89.844 213.459,89.474 213.569,89.202 213.401 C 88.819 213.164,88.819 213.036,89.202 212.799 C 89.534 212.594,89.300 212.268,88.466 211.776 C 87.794 211.378,87.335 210.906,87.446 210.726 C 87.557 210.546,87.187 210.223,86.624 210.009 C 86.061 209.795,85.600 209.422,85.600 209.181 C 85.600 208.673,84.610 207.604,84.129 207.592 C 83.948 207.588,83.269 206.690,82.620 205.597 C 81.825 204.257,81.338 203.771,81.127 204.105 C 80.922 204.428,80.810 204.279,80.806 203.676 C 80.803 203.168,80.634 202.856,80.431 202.981 C 80.068 203.205,78.402 201.202,78.398 200.538 C 78.397 200.352,77.857 199.625,77.198 198.922 C 76.539 198.219,76.000 197.454,76.000 197.222 C 76.000 196.990,75.820 196.800,75.600 196.800 C 75.380 196.800,75.200 196.545,75.200 196.233 C 75.200 195.922,75.050 195.607,74.866 195.533 C 74.682 195.460,73.892 194.465,73.111 193.321 C 72.330 192.178,71.571 191.362,71.424 191.509 C 71.278 191.656,71.276 191.466,71.422 191.088 C 71.567 190.710,71.508 190.400,71.291 190.400 C 71.074 190.400,70.674 189.862,70.402 189.205 C 70.130 188.548,69.748 188.109,69.554 188.229 C 69.359 188.349,69.200 187.976,69.200 187.400 C 69.200 186.824,69.050 186.445,68.868 186.558 C 68.685 186.671,68.291 186.142,67.993 185.382 C 67.695 184.622,67.304 184.000,67.125 184.000 C 66.946 184.000,66.800 183.640,66.800 183.200 C 66.800 182.760,66.620 182.400,66.400 182.400 C 66.180 182.400,66.000 182.130,66.000 181.800 C 66.000 181.470,65.820 181.200,65.600 181.200 C 65.380 181.200,65.200 180.930,65.200 180.600 C 65.200 180.270,65.020 180.000,64.800 180.000 C 64.580 180.000,64.400 179.640,64.400 179.200 C 64.400 178.760,64.264 178.400,64.098 178.400 C 63.931 178.400,63.541 177.815,63.230 177.100 C 62.919 176.385,62.560 175.710,62.432 175.600 C 61.960 175.194,61.200 173.592,61.200 173.005 C 61.200 172.672,61.020 172.400,60.800 172.400 C 60.580 172.400,60.400 172.040,60.400 171.600 C 60.400 171.160,60.220 170.800,60.000 170.800 C 59.780 170.800,59.600 170.440,59.600 170.000 C 59.600 169.560,59.459 169.200,59.288 169.200 C 59.116 169.200,58.772 168.660,58.522 168.000 C 58.035 166.708,57.300 166.490,56.500 167.398 M93.800 200.400 C 93.493 200.897,93.897 201.600,94.490 201.600 C 94.734 201.600,94.815 201.482,94.670 201.337 C 94.525 201.192,94.607 200.832,94.852 200.537 C 95.193 200.127,95.150 200.000,94.673 200.000 C 94.329 200.000,93.936 200.180,93.800 200.400 M94.967 202.300 C 95.132 202.465,95.477 202.608,95.733 202.618 C 95.990 202.628,96.151 202.867,96.090 203.148 C 96.030 203.429,96.165 203.545,96.390 203.406 C 96.616 203.267,96.800 203.343,96.800 203.576 C 96.800 203.809,97.011 204.000,97.270 204.000 C 97.528 204.000,97.317 203.550,96.800 203.000 C 96.283 202.450,95.592 202.000,95.264 202.000 C 94.935 202.000,94.802 202.135,94.967 202.300 M94.159 217.983 C 94.186 218.725,94.375 219.030,94.723 218.897 C 95.011 218.787,95.155 218.459,95.043 218.169 C 94.916 217.838,95.051 217.722,95.405 217.857 C 95.716 217.976,96.079 218.420,96.214 218.843 C 96.348 219.266,96.623 219.509,96.825 219.384 C 97.248 219.123,95.716 217.424,94.759 217.092 C 94.267 216.922,94.128 217.128,94.159 217.983 M124.501 264.200 C 124.505 265.080,124.587 265.393,124.683 264.895 C 124.779 264.398,124.775 263.678,124.675 263.295 C 124.575 262.913,124.496 263.320,124.501 264.200 " stroke="none" fill="#91f9ac" fill-rule="evenodd"></path><path id="path3" d="M282.000 25.173 C 282.000 25.378,281.415 25.933,280.700 26.406 L 279.400 27.266 280.600 26.198 C 281.503 25.393,281.578 25.240,280.900 25.579 C 279.870 26.093,278.849 27.507,278.609 28.752 C 278.519 29.220,278.303 29.827,278.130 30.102 C 277.957 30.376,277.786 31.118,277.752 31.752 C 277.708 32.548,277.796 32.734,278.038 32.352 C 278.347 31.865,278.629 33.339,278.448 34.497 C 278.399 34.813,279.458 36.201,280.319 36.949 C 280.605 37.197,281.176 37.734,281.589 38.143 C 282.001 38.551,282.513 38.777,282.726 38.646 C 282.938 38.514,283.416 38.869,283.786 39.435 C 284.181 40.038,284.695 40.372,285.030 40.244 C 285.360 40.117,285.600 40.267,285.600 40.600 C 285.600 40.947,285.838 41.083,286.200 40.945 C 286.530 40.818,286.800 40.898,286.800 41.122 C 286.800 41.346,287.245 41.481,287.789 41.421 C 288.333 41.361,288.682 41.467,288.565 41.656 C 288.448 41.845,288.538 42.000,288.764 42.000 C 288.990 42.000,289.071 42.270,288.945 42.600 C 288.818 42.930,288.914 43.200,289.157 43.200 C 289.567 43.200,289.770 42.648,289.642 41.883 C 289.612 41.708,289.951 41.760,290.394 41.997 C 291.188 42.421,291.200 42.321,291.200 35.463 C 291.200 28.696,291.529 26.862,292.558 27.891 C 292.714 28.048,292.724 27.867,292.579 27.490 C 292.435 27.113,292.155 26.904,291.958 27.026 C 291.761 27.148,291.600 27.062,291.600 26.836 C 291.600 26.610,291.330 26.529,291.000 26.655 C 290.664 26.784,290.400 26.666,290.400 26.387 C 290.400 25.280,288.986 24.825,285.500 24.813 C 283.575 24.806,282.000 24.968,282.000 25.173 M290.293 43.120 C 290.534 43.772,291.919 45.200,292.310 45.200 C 292.413 45.200,292.280 44.938,292.015 44.618 C 291.749 44.297,291.664 43.819,291.827 43.556 C 292.015 43.252,291.954 43.181,291.662 43.362 C 291.408 43.519,291.200 43.476,291.200 43.266 C 291.200 43.057,290.939 42.786,290.620 42.663 C 290.207 42.504,290.113 42.635,290.293 43.120 M317.200 45.889 C 317.200 46.121,317.571 46.736,318.024 47.256 L 318.847 48.200 318.145 47.000 C 317.220 45.421,317.200 45.397,317.200 45.889 M296.533 48.238 C 296.533 48.547,296.773 48.800,297.067 48.800 C 297.360 48.800,297.600 48.639,297.600 48.443 C 297.600 48.246,297.360 47.993,297.067 47.881 C 296.773 47.768,296.533 47.929,296.533 48.238 M302.000 96.424 C 302.000 96.657,301.792 96.719,301.538 96.562 C 301.259 96.389,301.185 96.452,301.351 96.721 C 301.502 96.965,301.890 97.064,302.213 96.940 C 302.876 96.685,303.012 96.000,302.400 96.000 C 302.180 96.000,302.000 96.191,302.000 96.424 M290.400 106.000 C 290.123 106.518,290.114 106.800,290.373 106.800 C 290.594 106.800,290.662 107.095,290.523 107.456 C 290.296 108.049,290.220 108.042,289.736 107.380 C 289.273 106.747,289.200 106.736,289.200 107.300 C 289.200 107.659,289.022 108.063,288.805 108.197 C 288.567 108.344,288.517 108.154,288.679 107.721 C 288.917 107.087,288.868 107.067,288.275 107.549 C 287.904 107.851,287.600 107.988,287.600 107.853 C 287.600 107.718,287.073 108.158,286.430 108.832 C 285.786 109.506,285.156 110.044,285.030 110.028 C 284.097 109.913,283.835 110.034,284.332 110.350 C 284.705 110.586,284.466 110.767,283.532 110.956 C 282.489 111.166,282.330 111.307,282.800 111.606 C 283.312 111.932,283.297 111.989,282.700 111.994 C 282.315 111.997,282.000 112.180,282.000 112.400 C 282.000 112.620,281.724 112.800,281.387 112.800 C 281.051 112.800,280.676 113.059,280.554 113.375 C 280.427 113.706,280.065 113.846,279.701 113.707 C 279.326 113.563,279.171 113.630,279.321 113.872 C 279.459 114.096,279.129 114.517,278.586 114.807 C 278.044 115.098,277.600 115.485,277.600 115.668 C 277.600 115.850,277.439 116.000,277.242 116.000 C 277.046 116.000,276.307 116.540,275.600 117.200 C 274.415 118.307,272.433 118.917,273.000 118.000 C 273.230 117.628,272.109 117.408,270.860 117.579 C 270.563 117.620,270.438 117.461,270.583 117.227 C 270.729 116.992,270.564 116.800,270.218 116.800 C 269.872 116.800,269.277 116.632,268.895 116.427 C 268.513 116.221,267.345 115.822,266.300 115.539 C 265.255 115.257,264.400 114.885,264.400 114.713 C 264.400 114.541,263.860 114.400,263.200 114.400 C 262.540 114.400,262.000 114.209,262.000 113.975 C 262.000 113.741,261.668 113.606,261.261 113.675 C 260.855 113.744,260.225 113.553,259.861 113.251 C 259.410 112.876,259.200 112.849,259.200 113.165 C 259.200 113.510,258.988 113.515,258.369 113.183 C 257.912 112.939,257.301 112.829,257.011 112.940 C 256.722 113.051,256.075 112.705,255.573 112.171 C 254.626 111.164,253.432 110.902,252.996 111.607 C 252.858 111.830,252.574 111.908,252.366 111.779 C 252.157 111.650,252.108 111.349,252.255 111.111 C 252.409 110.861,252.339 110.791,252.089 110.945 C 251.851 111.092,251.542 111.030,251.404 110.807 C 251.007 110.164,250.400 110.334,250.661 111.015 C 250.917 111.681,253.196 113.020,253.206 112.510 C 253.209 112.340,253.387 112.470,253.600 112.800 C 254.280 113.852,254.126 193.734,253.445 193.473 C 253.049 193.321,252.951 193.493,253.104 194.076 C 253.287 194.775,253.367 194.801,253.669 194.262 C 253.863 193.916,254.272 193.730,254.580 193.848 C 254.887 193.965,255.512 193.688,255.969 193.231 C 256.426 192.774,256.946 192.400,257.125 192.400 C 257.303 192.400,257.840 192.036,258.317 191.592 C 258.794 191.147,259.323 190.742,259.492 190.692 C 259.662 190.641,259.757 190.471,259.705 190.314 C 259.652 190.157,259.907 190.143,260.270 190.282 C 260.714 190.453,260.836 190.382,260.642 190.068 C 260.476 189.800,260.581 189.600,260.887 189.600 C 261.182 189.600,261.726 189.285,262.098 188.900 C 263.369 187.584,264.600 186.546,265.700 185.864 C 266.305 185.488,266.800 185.004,266.800 184.787 C 266.800 184.570,267.340 183.828,268.000 183.137 C 268.660 182.446,269.200 181.717,269.200 181.517 C 269.200 181.317,269.335 181.220,269.500 181.302 C 269.665 181.384,270.199 181.035,270.686 180.526 C 271.173 180.017,271.481 179.600,271.370 179.600 C 271.259 179.600,271.359 179.375,271.592 179.100 C 273.558 176.779,273.980 176.135,273.815 175.700 C 273.710 175.425,273.889 175.200,274.213 175.200 C 274.743 175.200,274.977 174.720,274.847 173.900 C 274.821 173.735,275.070 173.600,275.400 173.600 C 275.739 173.600,276.000 173.242,276.000 172.776 C 276.000 172.231,276.169 172.050,276.500 172.241 C 276.775 172.399,276.867 172.382,276.705 172.203 C 276.543 172.024,276.748 171.320,277.160 170.639 C 277.572 169.957,278.043 168.958,278.207 168.419 C 278.371 167.879,278.753 167.189,279.056 166.886 C 279.359 166.583,279.505 166.170,279.380 165.968 C 279.255 165.765,279.343 165.600,279.576 165.600 C 279.809 165.600,280.000 165.240,280.000 164.800 C 280.000 164.360,280.180 164.000,280.400 164.000 C 280.620 164.000,280.800 163.565,280.800 163.033 C 280.800 162.502,280.975 162.007,281.188 161.933 C 281.402 161.860,281.634 161.421,281.704 160.958 C 281.774 160.496,282.139 159.647,282.516 159.073 C 282.892 158.498,283.200 157.582,283.200 157.038 C 283.200 156.493,283.380 155.936,283.600 155.800 C 283.820 155.664,284.000 154.854,284.000 154.000 C 284.000 153.146,284.197 152.325,284.438 152.176 C 284.679 152.027,284.808 151.317,284.724 150.598 C 284.608 149.602,284.705 149.342,285.132 149.506 C 285.589 149.681,285.608 149.562,285.232 148.861 C 284.958 148.347,284.930 148.000,285.163 148.000 C 285.378 148.000,285.609 147.235,285.677 146.300 C 285.762 145.124,285.967 144.635,286.342 144.714 C 286.640 144.777,287.170 144.597,287.519 144.314 C 288.051 143.883,288.104 143.897,287.847 144.400 C 287.575 144.933,287.600 144.933,288.070 144.400 C 288.411 144.014,289.169 143.837,290.200 143.905 C 291.475 143.988,291.658 143.923,291.100 143.585 C 290.715 143.351,290.403 142.944,290.406 142.680 C 290.410 142.386,290.563 142.433,290.800 142.800 C 291.059 143.201,291.200 141.007,291.224 136.200 C 291.245 132.240,291.325 128.661,291.403 128.248 C 291.508 127.688,291.429 127.611,291.092 127.948 C 290.844 128.196,290.305 128.400,289.896 128.400 C 289.471 128.400,289.266 128.583,289.417 128.827 C 289.562 129.061,289.437 129.220,289.140 129.179 C 287.925 129.013,286.767 129.223,286.983 129.572 C 287.109 129.777,287.026 130.061,286.797 130.202 C 286.568 130.344,286.430 130.221,286.490 129.930 C 286.551 129.638,286.345 129.455,286.032 129.523 C 285.578 129.621,285.562 129.528,285.949 129.061 C 286.330 128.602,286.323 128.433,285.917 128.266 C 285.591 128.132,285.742 127.950,286.323 127.774 C 286.851 127.614,287.160 127.274,287.046 126.977 C 286.937 126.692,287.152 126.220,287.524 125.929 C 288.141 125.446,288.151 125.469,287.629 126.200 C 287.315 126.640,287.551 126.501,288.153 125.891 C 288.756 125.282,289.445 124.904,289.686 125.053 C 289.948 125.215,290.009 125.139,289.838 124.862 C 289.681 124.608,289.738 124.400,289.964 124.400 C 290.190 124.400,290.261 124.104,290.122 123.742 C 289.974 123.356,290.137 122.889,290.518 122.610 C 291.287 122.048,291.743 106.544,291.000 106.230 C 290.779 106.136,290.868 105.871,291.200 105.637 C 291.585 105.364,291.626 105.210,291.314 105.206 C 291.047 105.203,290.635 105.560,290.400 106.000 M244.900 109.076 C 245.285 109.176,245.600 109.395,245.600 109.563 C 245.600 109.730,245.894 109.867,246.253 109.867 C 246.819 109.867,246.808 109.795,246.176 109.333 C 245.775 109.040,245.166 108.821,244.824 108.846 C 244.339 108.882,244.356 108.934,244.900 109.076 M248.400 110.009 C 248.400 110.238,248.678 110.532,249.017 110.662 C 249.955 111.022,250.066 110.633,249.182 110.081 C 248.687 109.772,248.400 109.746,248.400 110.009 M238.548 128.400 C 238.548 130.710,238.614 131.655,238.695 130.500 C 238.776 129.345,238.776 127.455,238.695 126.300 C 238.614 125.145,238.548 126.090,238.548 128.400 M290.423 129.373 C 290.161 129.687,289.409 129.930,288.750 129.911 C 288.080 129.892,287.759 129.749,288.020 129.587 C 288.278 129.428,288.808 129.382,289.199 129.484 C 289.590 129.586,290.031 129.474,290.178 129.235 C 290.326 128.996,290.549 128.800,290.673 128.800 C 290.797 128.800,290.684 129.058,290.423 129.373 M249.600 133.424 C 249.600 133.987,249.763 134.346,249.962 134.223 C 250.162 134.100,250.231 133.639,250.116 133.200 C 249.828 132.099,249.600 132.198,249.600 133.424 M251.243 195.696 C 251.003 196.344,251.090 196.724,251.555 197.064 C 251.909 197.323,252.066 197.668,251.903 197.830 C 251.451 198.282,252.380 199.182,253.038 198.930 C 253.491 198.756,253.393 198.484,252.585 197.676 C 251.846 196.936,251.618 196.382,251.784 195.722 C 252.081 194.539,251.678 194.520,251.243 195.696 M254.134 198.500 C 254.289 198.950,254.173 199.200,253.811 199.200 C 253.501 199.200,253.152 199.355,253.035 199.544 C 252.842 199.855,254.690 199.843,255.003 199.531 C 255.075 199.458,254.855 199.039,254.513 198.599 C 254.013 197.956,253.939 197.936,254.134 198.500 M253.884 209.000 C 253.935 214.395,253.830 217.490,253.612 217.000 C 253.416 216.560,253.244 216.436,253.228 216.724 C 253.213 217.012,252.975 217.133,252.700 216.994 C 252.425 216.855,252.549 217.024,252.976 217.370 C 253.404 217.717,253.961 218.000,254.214 218.000 C 254.831 218.000,256.070 219.396,255.744 219.723 C 255.602 219.865,255.781 220.095,256.143 220.233 C 256.504 220.372,256.800 220.747,256.800 221.066 C 256.800 221.386,256.980 221.536,257.200 221.400 C 257.420 221.264,257.600 221.403,257.600 221.709 C 257.600 222.015,258.031 222.496,258.558 222.778 C 259.877 223.484,261.224 225.401,261.320 226.711 C 261.364 227.310,261.574 227.924,261.786 228.077 C 261.998 228.229,262.191 228.769,262.215 229.277 C 262.238 229.784,262.476 230.605,262.743 231.100 C 263.010 231.595,263.114 232.000,262.975 232.000 C 262.835 232.000,263.099 232.641,263.561 233.424 C 264.023 234.207,264.217 234.734,263.991 234.594 C 263.765 234.455,263.918 234.942,264.331 235.677 C 264.744 236.413,265.179 237.551,265.297 238.207 C 265.539 239.553,267.379 244.930,268.476 247.496 C 268.874 248.428,269.200 249.543,269.200 249.972 C 269.200 250.401,269.380 250.864,269.600 251.000 C 269.820 251.136,270.000 251.687,270.000 252.224 C 270.000 252.761,270.180 253.200,270.400 253.200 C 270.620 253.200,270.800 253.611,270.800 254.114 C 270.800 254.879,272.491 256.397,273.600 256.626 C 273.710 256.648,274.307 256.877,274.926 257.134 C 276.448 257.764,279.198 257.743,279.206 257.100 C 279.211 256.712,279.286 256.715,279.539 257.115 C 279.907 257.694,282.470 255.562,282.924 254.300 C 283.062 253.915,283.372 253.600,283.613 253.600 C 283.853 253.600,284.018 253.285,283.979 252.900 C 283.838 251.518,283.984 250.956,284.339 251.515 C 284.539 251.830,284.659 251.413,284.648 250.444 C 284.638 249.572,284.488 248.946,284.315 249.053 C 284.142 249.160,284.000 248.787,284.000 248.224 C 284.000 247.661,283.775 247.197,283.500 247.194 C 283.134 247.189,283.146 247.095,283.545 246.842 C 283.900 246.617,283.936 246.445,283.649 246.348 C 283.406 246.267,283.167 245.718,283.119 245.129 C 283.070 244.540,282.888 244.145,282.715 244.252 C 282.542 244.360,282.400 243.897,282.400 243.224 C 282.400 242.551,282.264 242.000,282.097 242.000 C 281.766 242.000,280.800 239.176,280.800 238.206 C 280.800 237.873,280.609 237.600,280.376 237.600 C 280.143 237.600,280.044 237.452,280.156 237.271 C 280.268 237.091,280.106 236.455,279.796 235.858 C 279.487 235.262,279.411 234.883,279.627 235.017 C 279.843 235.150,279.651 234.603,279.200 233.800 C 278.745 232.989,278.607 232.469,278.890 232.629 C 279.299 232.860,279.301 232.810,278.900 232.379 C 278.625 232.082,278.400 231.516,278.400 231.120 C 278.400 230.724,278.220 230.400,278.000 230.400 C 277.780 230.400,277.621 230.265,277.647 230.100 C 277.804 229.109,277.540 227.990,277.200 228.200 C 276.962 228.347,276.800 227.871,276.800 227.024 C 276.800 226.241,276.620 225.600,276.400 225.600 C 276.180 225.600,276.000 225.238,276.000 224.795 C 276.000 224.352,275.833 223.677,275.629 223.295 C 275.058 222.224,274.665 221.037,274.753 220.650 C 274.797 220.457,274.511 219.931,274.117 219.481 C 273.723 219.031,273.638 218.802,273.930 218.973 C 274.432 219.268,273.848 217.848,273.200 217.200 C 273.090 217.090,272.943 216.640,272.872 216.200 C 272.802 215.760,272.487 215.200,272.172 214.956 C 271.858 214.712,271.600 214.287,271.600 214.013 C 271.600 213.739,271.339 213.614,271.020 213.737 C 270.646 213.881,270.515 213.767,270.649 213.416 C 270.772 213.096,270.500 212.759,269.986 212.596 C 268.836 212.231,267.600 211.151,267.600 210.511 C 267.600 210.230,267.229 210.000,266.776 210.000 C 266.323 210.000,266.056 209.833,266.182 209.629 C 266.308 209.425,266.074 209.150,265.661 209.020 C 265.249 208.889,264.277 208.111,263.502 207.291 C 262.726 206.471,261.531 205.352,260.846 204.804 C 260.161 204.257,259.597 203.537,259.594 203.204 C 259.588 202.668,259.544 202.668,259.200 203.200 C 258.886 203.685,258.811 203.628,258.806 202.900 C 258.803 202.405,258.561 202.000,258.270 202.000 C 257.978 202.000,257.325 201.559,256.819 201.020 C 256.231 200.394,255.519 200.069,254.849 200.120 L 253.800 200.200 253.884 209.000 " stroke="none" fill="#2bcca3" fill-rule="evenodd"></path><path id="path4" d="M280.600 26.099 L 279.400 27.312 280.700 26.429 C 281.415 25.943,282.000 25.378,282.000 25.173 C 282.000 24.685,281.997 24.687,280.600 26.099 M291.613 28.147 C 291.361 28.399,291.200 31.256,291.200 35.494 C 291.200 42.037,291.160 42.407,290.483 42.044 C 289.875 41.719,289.752 41.839,289.676 42.830 C 289.626 43.487,289.786 44.000,290.040 44.000 C 290.291 44.000,290.403 43.655,290.292 43.230 C 290.151 42.690,290.256 42.523,290.645 42.673 C 290.950 42.790,291.200 43.057,291.200 43.266 C 291.200 43.476,291.378 43.537,291.595 43.403 C 291.816 43.266,291.893 43.415,291.768 43.739 C 291.646 44.058,291.741 44.440,291.979 44.587 C 292.218 44.735,292.335 44.981,292.241 45.134 C 292.146 45.288,292.503 45.618,293.035 45.869 C 293.566 46.120,293.901 46.164,293.780 45.967 C 293.658 45.770,293.826 45.712,294.154 45.838 C 294.504 45.972,294.649 46.329,294.505 46.703 C 294.324 47.175,294.433 47.273,294.931 47.082 C 295.354 46.919,295.600 47.025,295.600 47.370 C 295.600 47.669,295.879 48.022,296.221 48.153 C 296.573 48.288,296.737 48.222,296.600 48.000 C 296.464 47.780,296.624 47.711,296.964 47.842 C 297.297 47.969,297.679 48.417,297.812 48.837 C 297.945 49.257,298.322 49.600,298.651 49.600 C 299.000 49.600,299.129 49.792,298.962 50.062 C 298.791 50.338,298.851 50.415,299.112 50.254 C 299.352 50.106,299.977 50.414,300.502 50.938 C 301.026 51.463,302.343 52.515,303.428 53.277 C 304.513 54.039,305.596 55.052,305.836 55.529 C 306.075 56.005,306.390 56.276,306.536 56.131 C 306.681 55.986,306.800 56.165,306.800 56.530 C 306.800 56.895,307.160 57.418,307.600 57.693 C 308.040 57.968,308.400 58.509,308.400 58.896 C 308.400 59.283,308.577 59.600,308.792 59.600 C 309.008 59.600,309.306 60.095,309.454 60.700 C 309.602 61.305,309.830 61.890,309.962 62.000 C 310.472 62.428,311.200 64.025,311.200 64.715 C 311.200 65.114,311.379 65.619,311.598 65.838 C 311.816 66.056,312.036 66.722,312.085 67.318 C 312.134 67.913,312.285 68.400,312.421 68.400 C 312.736 68.400,312.759 68.800,312.779 74.778 C 312.790 78.050,312.642 79.851,312.346 80.033 C 312.099 80.186,311.977 80.864,312.077 81.540 C 312.192 82.329,312.067 82.842,311.728 82.972 C 311.438 83.084,311.200 83.511,311.200 83.921 C 311.200 84.331,311.065 84.802,310.900 84.967 C 310.616 85.250,310.571 85.396,310.450 86.424 C 310.423 86.657,310.257 86.759,310.083 86.651 C 309.909 86.544,309.738 86.823,309.705 87.272 C 309.671 87.722,309.363 88.399,309.021 88.776 C 308.680 89.154,308.400 89.608,308.400 89.785 C 308.400 89.961,308.084 90.397,307.697 90.753 C 307.311 91.109,306.742 91.892,306.433 92.493 C 306.125 93.095,305.541 93.692,305.136 93.820 C 304.731 93.949,304.400 94.322,304.400 94.651 C 304.400 94.979,304.220 95.136,304.000 95.000 C 303.780 94.864,303.600 94.943,303.600 95.176 C 303.600 95.409,303.336 95.600,303.013 95.600 C 302.679 95.600,302.516 95.837,302.636 96.148 C 302.751 96.450,302.556 96.808,302.202 96.944 C 301.760 97.114,301.652 97.036,301.856 96.695 C 302.198 96.126,301.410 96.733,299.304 98.662 C 298.518 99.382,297.719 99.874,297.528 99.756 C 297.337 99.637,297.230 99.716,297.290 99.930 C 297.351 100.145,297.220 100.378,297.000 100.449 C 296.780 100.519,296.111 101.077,295.513 101.689 C 294.916 102.300,294.161 102.800,293.836 102.800 C 293.463 102.800,293.302 103.091,293.398 103.592 C 293.482 104.027,293.427 104.366,293.275 104.344 C 291.965 104.158,291.138 104.461,291.362 105.045 C 291.536 105.499,291.436 105.623,291.025 105.465 C 290.633 105.315,290.514 105.431,290.663 105.820 C 290.786 106.139,291.001 106.400,291.143 106.400 C 291.777 106.399,291.180 122.126,290.528 122.603 C 290.177 122.860,289.975 123.324,290.080 123.635 C 290.185 123.946,289.984 124.435,289.635 124.722 C 289.087 125.172,289.110 125.187,289.800 124.827 C 290.240 124.598,291.140 123.939,291.800 123.361 C 292.460 122.784,292.747 122.450,292.438 122.618 C 292.078 122.814,291.973 122.767,292.147 122.486 C 292.295 122.246,292.773 122.118,293.208 122.202 C 293.702 122.297,294.000 122.137,294.000 121.777 C 294.000 121.460,294.191 121.200,294.424 121.200 C 294.657 121.200,294.736 121.020,294.600 120.800 C 294.464 120.580,294.633 120.400,294.976 120.400 C 295.319 120.400,295.600 120.226,295.600 120.013 C 295.600 119.799,295.868 119.728,296.197 119.854 C 296.537 119.985,296.899 119.808,297.039 119.444 C 297.173 119.092,297.449 118.907,297.652 119.032 C 297.854 119.157,297.970 119.021,297.910 118.730 C 297.849 118.438,298.025 118.245,298.300 118.300 C 298.575 118.355,298.755 118.265,298.700 118.100 C 298.645 117.935,298.764 117.771,298.964 117.736 C 299.164 117.701,299.484 117.393,299.675 117.052 C 299.880 116.686,300.288 116.536,300.676 116.685 C 301.115 116.853,301.236 116.781,301.042 116.468 C 300.883 116.211,300.898 115.999,301.076 115.998 C 301.254 115.997,301.965 115.467,302.655 114.820 C 303.345 114.173,304.016 113.749,304.146 113.879 C 304.275 114.009,304.495 113.819,304.633 113.457 C 304.772 113.096,305.115 112.800,305.396 112.800 C 305.677 112.800,306.001 112.440,306.116 112.000 C 306.231 111.560,306.630 111.200,307.002 111.200 C 307.374 111.200,308.183 110.660,308.800 110.000 C 309.417 109.340,310.074 108.800,310.260 108.800 C 311.110 108.798,319.200 100.951,319.200 100.127 C 319.200 99.837,319.380 99.600,319.600 99.600 C 319.820 99.600,320.000 99.330,320.000 99.000 C 320.000 98.670,320.191 98.400,320.424 98.400 C 320.657 98.400,320.750 98.243,320.631 98.050 C 320.512 97.858,320.845 97.378,321.371 96.983 C 321.902 96.584,322.268 95.952,322.193 95.564 C 322.119 95.179,322.315 94.765,322.629 94.644 C 322.943 94.524,323.200 94.149,323.200 93.813 C 323.200 93.476,323.380 93.200,323.600 93.200 C 323.820 93.200,323.976 93.065,323.946 92.900 C 323.840 92.303,324.512 89.978,324.852 89.768 C 325.043 89.650,325.200 89.124,325.200 88.600 C 325.200 88.076,325.380 87.536,325.600 87.400 C 325.820 87.264,326.000 86.634,326.000 86.000 C 326.000 85.366,326.180 84.736,326.400 84.600 C 326.620 84.464,326.800 83.373,326.800 82.176 C 326.800 80.979,326.980 80.000,327.200 80.000 C 327.448 80.000,327.600 77.867,327.600 74.400 C 327.600 70.933,327.448 68.800,327.200 68.800 C 326.974 68.800,326.800 67.667,326.800 66.200 C 326.800 64.733,326.626 63.600,326.400 63.600 C 326.180 63.600,326.000 63.060,326.000 62.400 C 326.000 61.740,325.820 61.200,325.600 61.200 C 325.380 61.200,325.200 60.750,325.200 60.200 C 325.200 59.650,325.059 59.200,324.887 59.200 C 324.715 59.200,324.536 58.736,324.489 58.170 C 324.394 57.015,322.374 52.679,321.459 51.661 C 321.131 51.298,320.804 50.737,320.732 50.416 C 320.549 49.603,319.860 48.848,319.500 49.066 C 319.335 49.165,319.194 48.922,319.187 48.524 C 319.174 47.784,318.000 45.924,318.000 46.644 C 318.000 46.862,318.225 47.282,318.500 47.579 C 318.900 48.010,318.900 48.061,318.497 47.833 C 318.221 47.677,317.723 47.025,317.392 46.384 C 316.648 44.945,313.603 42.024,312.833 42.010 C 312.522 42.005,312.378 41.889,312.514 41.752 C 312.847 41.419,311.794 40.400,311.117 40.400 C 310.820 40.400,310.317 40.040,310.000 39.600 C 309.683 39.160,309.180 38.800,308.883 38.800 C 308.206 38.800,307.153 37.781,307.486 37.448 C 307.714 37.219,306.637 37.029,305.870 37.163 C 305.689 37.194,305.655 37.035,305.794 36.810 C 305.933 36.584,305.756 36.400,305.400 36.400 C 305.044 36.400,304.851 36.240,304.972 36.045 C 305.174 35.718,303.785 35.058,303.100 35.157 C 302.935 35.181,302.800 34.930,302.800 34.600 C 302.800 34.270,302.530 34.000,302.200 34.000 C 301.870 34.000,301.600 33.812,301.600 33.582 C 301.600 33.353,301.347 33.218,301.038 33.282 C 300.729 33.347,300.113 32.983,299.668 32.474 C 299.224 31.964,298.757 31.559,298.630 31.574 C 297.885 31.659,297.575 31.564,297.734 31.300 C 297.834 31.135,297.631 30.736,297.282 30.413 C 296.717 29.890,296.679 29.909,296.937 30.581 C 297.155 31.148,296.963 31.072,296.165 30.274 C 295.581 29.690,294.947 29.309,294.756 29.427 C 294.565 29.545,294.524 29.341,294.665 28.975 C 294.871 28.438,294.753 28.361,294.061 28.581 C 293.459 28.772,293.200 28.685,293.200 28.294 C 293.200 27.640,292.212 27.548,291.613 28.147 M354.400 104.800 C 354.400 105.020,353.950 105.200,353.400 105.200 C 352.850 105.200,352.400 105.380,352.400 105.600 C 352.400 105.820,352.127 106.000,351.794 106.000 C 350.824 106.000,348.000 106.966,348.000 107.297 C 348.000 107.464,347.550 107.600,347.000 107.600 C 346.450 107.600,346.000 107.760,346.000 107.955 C 346.000 108.279,344.428 108.731,342.700 108.902 C 342.315 108.940,342.000 109.113,342.000 109.286 C 342.000 109.459,341.460 109.600,340.800 109.600 C 340.140 109.600,339.600 109.747,339.600 109.928 C 339.600 110.108,338.689 110.504,337.575 110.807 C 336.461 111.110,335.460 111.503,335.351 111.679 C 335.242 111.856,334.713 112.000,334.176 112.000 C 333.639 112.000,333.200 112.180,333.200 112.400 C 333.200 112.620,332.649 112.800,331.976 112.800 C 331.263 112.800,330.856 112.967,331.000 113.200 C 331.136 113.420,330.874 113.600,330.418 113.600 C 329.962 113.600,329.232 113.780,328.795 114.000 C 328.358 114.220,327.642 114.580,327.205 114.800 C 326.768 115.020,326.048 115.200,325.605 115.200 C 325.162 115.200,324.800 115.380,324.800 115.600 C 324.800 115.820,324.361 116.000,323.824 116.000 C 323.287 116.000,322.736 116.180,322.600 116.400 C 322.464 116.620,322.003 116.800,321.576 116.800 C 321.149 116.800,320.800 116.980,320.800 117.200 C 320.800 117.420,320.260 117.600,319.600 117.600 C 318.940 117.600,318.400 117.780,318.400 118.000 C 318.400 118.220,317.849 118.400,317.176 118.400 C 316.463 118.400,316.056 118.567,316.200 118.800 C 316.347 119.039,315.863 119.200,315.000 119.200 C 314.137 119.200,313.653 119.361,313.800 119.600 C 313.936 119.820,313.677 120.000,313.224 120.000 C 312.771 120.000,312.400 120.180,312.400 120.400 C 312.400 120.620,311.759 120.800,310.976 120.800 C 310.129 120.800,309.653 120.962,309.800 121.200 C 309.940 121.426,309.612 121.600,309.047 121.600 C 308.497 121.600,307.936 121.780,307.800 122.000 C 307.664 122.220,307.103 122.400,306.553 122.400 C 305.988 122.400,305.660 122.574,305.800 122.800 C 305.944 123.033,305.537 123.200,304.824 123.200 C 304.151 123.200,303.600 123.380,303.600 123.600 C 303.600 123.820,303.251 124.000,302.824 124.000 C 302.397 124.000,301.936 124.180,301.800 124.400 C 301.664 124.620,300.963 124.800,300.243 124.800 C 299.523 124.800,298.809 124.925,298.656 125.077 C 298.504 125.229,297.988 125.414,297.511 125.487 C 297.033 125.559,296.348 125.885,295.988 126.210 C 295.629 126.536,295.219 126.686,295.077 126.544 C 294.935 126.402,294.573 126.490,294.273 126.740 C 293.972 126.989,293.593 127.060,293.430 126.897 C 293.267 126.733,293.170 126.780,293.214 127.000 C 293.387 127.856,293.169 128.172,292.800 127.600 C 292.570 127.245,292.410 127.193,292.406 127.474 C 292.402 127.759,292.004 127.875,291.400 127.766 C 290.850 127.666,290.400 127.768,290.400 127.992 C 290.400 128.216,290.589 128.355,290.821 128.300 C 291.106 128.232,291.230 130.705,291.206 135.932 L 291.169 143.664 292.484 142.975 C 295.225 141.540,295.302 141.511,294.970 142.049 C 294.797 142.329,295.211 142.162,295.890 141.679 C 296.568 141.195,297.276 140.803,297.462 140.806 C 297.648 140.809,297.530 140.987,297.200 141.200 C 296.379 141.731,297.383 141.731,298.305 141.200 C 298.941 140.835,300.976 139.985,301.700 139.784 C 301.865 139.738,302.461 139.677,303.024 139.650 C 303.595 139.622,303.938 139.423,303.800 139.200 C 303.659 138.972,304.005 138.800,304.605 138.800 C 305.184 138.800,305.919 138.538,306.240 138.217 C 306.561 137.896,307.088 137.736,307.412 137.860 C 307.735 137.984,308.000 137.886,308.000 137.643 C 308.000 137.399,308.540 137.200,309.200 137.200 C 309.860 137.200,310.400 137.020,310.400 136.800 C 310.400 136.580,310.760 136.400,311.200 136.400 C 311.640 136.400,312.000 136.220,312.000 136.000 C 312.000 135.780,312.540 135.600,313.200 135.600 C 313.860 135.600,314.400 135.420,314.400 135.200 C 314.400 134.980,314.940 134.800,315.600 134.800 C 316.260 134.800,316.800 134.664,316.800 134.497 C 316.800 134.151,319.633 133.203,320.694 133.194 C 321.296 133.189,321.312 133.131,320.800 132.800 C 320.355 132.512,320.593 132.411,321.724 132.406 C 322.636 132.402,323.148 132.240,323.000 132.000 C 322.855 131.766,323.270 131.600,324.000 131.600 C 324.730 131.600,325.145 131.434,325.000 131.200 C 324.853 130.962,325.329 130.800,326.176 130.800 C 326.959 130.800,327.600 130.620,327.600 130.400 C 327.600 130.180,328.039 130.000,328.576 130.000 C 329.113 130.000,329.664 129.820,329.800 129.600 C 329.936 129.380,330.397 129.200,330.824 129.200 C 331.251 129.200,331.600 129.020,331.600 128.800 C 331.600 128.580,332.140 128.400,332.800 128.400 C 333.460 128.400,334.000 128.220,334.000 128.000 C 334.000 127.780,334.540 127.600,335.200 127.600 C 335.860 127.600,336.400 127.420,336.400 127.200 C 336.400 126.980,336.760 126.800,337.200 126.800 C 337.640 126.800,338.000 126.620,338.000 126.400 C 338.000 126.180,338.551 126.000,339.224 126.000 C 339.937 126.000,340.344 125.833,340.200 125.600 C 340.057 125.369,340.440 125.200,341.110 125.200 C 341.746 125.200,342.402 125.065,342.567 124.900 C 342.732 124.735,343.032 124.578,343.233 124.550 C 343.435 124.522,343.645 124.464,343.700 124.419 C 343.755 124.375,344.070 124.274,344.400 124.194 C 345.700 123.882,349.821 122.282,350.180 121.951 C 350.389 121.758,350.963 121.600,351.456 121.600 C 351.949 121.600,352.464 121.420,352.600 121.200 C 352.736 120.980,353.287 120.800,353.824 120.800 C 354.361 120.800,354.800 120.620,354.800 120.400 C 354.800 120.180,355.239 120.000,355.776 120.000 C 356.313 120.000,356.864 119.820,357.000 119.600 C 357.136 119.380,357.687 119.200,358.224 119.200 C 358.761 119.200,359.200 119.020,359.200 118.800 C 359.200 118.580,359.650 118.400,360.200 118.400 C 360.750 118.400,361.200 118.264,361.200 118.098 C 361.200 117.931,361.707 117.571,362.326 117.297 C 364.458 116.353,366.669 108.400,364.800 108.400 C 364.580 108.400,364.400 108.122,364.400 107.782 C 364.400 106.982,362.618 105.200,361.818 105.200 C 361.478 105.200,361.200 105.020,361.200 104.800 C 361.200 104.565,359.800 104.400,357.800 104.400 C 355.800 104.400,354.400 104.565,354.400 104.800 M289.600 106.776 C 289.600 107.763,290.243 108.186,290.546 107.398 C 290.672 107.069,290.590 106.800,290.364 106.800 C 290.138 106.800,290.064 106.620,290.200 106.400 C 290.336 106.180,290.257 106.000,290.024 106.000 C 289.791 106.000,289.600 106.349,289.600 106.776 M287.949 107.500 C 287.441 108.148,287.458 108.155,288.175 107.600 C 288.882 107.052,288.926 107.063,288.679 107.721 C 288.517 108.154,288.567 108.344,288.805 108.197 C 289.294 107.895,289.329 106.800,288.849 106.800 C 288.656 106.800,288.251 107.115,287.949 107.500 M288.189 128.817 C 288.059 129.028,288.098 129.203,288.276 129.206 C 288.454 129.209,288.364 129.362,288.076 129.545 C 287.727 129.766,287.952 129.888,288.750 129.911 C 289.437 129.930,290.164 129.658,290.455 129.273 C 290.883 128.704,290.875 128.677,290.401 129.100 C 290.092 129.375,289.561 129.597,289.220 129.594 C 288.728 129.589,288.710 129.518,289.134 129.250 C 289.565 128.976,289.548 128.866,289.046 128.673 C 288.705 128.542,288.319 128.607,288.189 128.817 M288.400 144.079 C 288.400 144.329,288.282 144.415,288.137 144.270 C 287.992 144.125,287.651 144.192,287.379 144.418 C 287.107 144.643,286.663 144.777,286.392 144.714 C 286.121 144.651,285.818 144.825,285.717 145.100 C 285.609 145.393,285.860 145.600,286.324 145.600 C 286.759 145.600,287.213 145.344,287.333 145.031 C 287.461 144.696,287.872 144.546,288.330 144.666 C 289.260 144.909,289.857 144.184,288.998 143.854 C 288.669 143.728,288.400 143.829,288.400 144.079 M267.613 210.670 C 267.627 211.041,269.588 212.556,269.775 212.339 C 269.841 212.263,269.378 211.781,268.747 211.270 C 268.116 210.758,267.606 210.488,267.613 210.670 M124.514 267.400 C 124.517 268.500,124.595 268.903,124.687 268.295 C 124.779 267.686,124.777 266.786,124.682 266.295 C 124.587 265.803,124.511 266.300,124.514 267.400 " stroke="none" fill="#19c19d" fill-rule="evenodd"></path></g></svg>